%TF.GenerationSoftware,KiCad,Pcbnew,10.0.4+b1*%
%TF.CreationDate,2026-07-15T16:48:25+10:00*%
%TF.ProjectId,TP_AVR,54505f41-5652-42e6-9b69-6361645f7063,A*%
%TF.SameCoordinates,Original*%
%TF.FileFunction,Copper,L2,Bot*%
%TF.FilePolarity,Positive*%
%FSLAX46Y46*%
G04 Gerber Fmt 4.6, Leading zero omitted, Abs format (unit mm)*
G04 Created by KiCad (PCBNEW 10.0.4+b1) date 2026-07-15 16:48:25*
%MOMM*%
%LPD*%
G01*
G04 APERTURE LIST*
%TA.AperFunction,ComponentPad*%
%ADD10C,2.400000*%
%TD*%
%TA.AperFunction,ComponentPad*%
%ADD11C,1.700000*%
%TD*%
%TA.AperFunction,ComponentPad*%
%ADD12C,1.600000*%
%TD*%
%TA.AperFunction,SMDPad,CuDef*%
%ADD13R,1.000000X1.500000*%
%TD*%
%TA.AperFunction,ViaPad*%
%ADD14C,0.450000*%
%TD*%
%TA.AperFunction,Conductor*%
%ADD15C,0.200000*%
%TD*%
%TA.AperFunction,Conductor*%
%ADD16C,0.500000*%
%TD*%
%TA.AperFunction,Conductor*%
%ADD17C,0.250000*%
%TD*%
%TA.AperFunction,Conductor*%
%ADD18C,0.127000*%
%TD*%
%TA.AperFunction,Conductor*%
%ADD19C,0.150000*%
%TD*%
G04 APERTURE END LIST*
D10*
%TO.P,SW1,*%
%TO.N,*%
X110299999Y-89175000D03*
X117299999Y-89175000D03*
D11*
%TO.P,SW1,1,A_1*%
%TO.N,Net-(M1-RST)*%
X111549999Y-86675000D03*
%TO.P,SW1,2,B_2*%
%TO.N,GND*%
X116049999Y-86675000D03*
%TD*%
D12*
%TO.P,M1,1,TXO/PD3_1*%
%TO.N,ROW5*%
X91902428Y-84901472D03*
%TO.P,M1,2,RXI/PD2_2*%
%TO.N,ROW0*%
X91902428Y-87441472D03*
%TO.P,M1,3,GND_3*%
%TO.N,GND*%
X91902428Y-89981472D03*
%TO.P,M1,4,GND_4*%
X91902428Y-92521472D03*
%TO.P,M1,5,2/PD1_5*%
%TO.N,ROW3*%
X91902428Y-95061472D03*
%TO.P,M1,6,3/PD0_6*%
%TO.N,ROW2*%
X91902428Y-97601472D03*
%TO.P,M1,7,4/PD4_7*%
%TO.N,LED_CAPS*%
X91902428Y-100141472D03*
%TO.P,M1,8,5/PC6_8*%
%TO.N,LED_SCRL*%
X91902428Y-102681472D03*
%TO.P,M1,9,6/PD7_9*%
%TO.N,LED_NUM*%
X91902428Y-105221472D03*
%TO.P,M1,10,7/PE6_10*%
%TO.N,LED_COMP*%
X91902428Y-107761472D03*
%TO.P,M1,11,8/PB4_11*%
%TO.N,S3*%
X91902428Y-110301472D03*
%TO.P,M1,12,9/PB5_12*%
%TO.N,TP_CLK*%
X91902428Y-112841472D03*
%TO.P,M1,13,10/PB6_13*%
%TO.N,TP_DATA*%
X107142428Y-112841472D03*
%TO.P,M1,14,16/PB2_14*%
%TO.N,S2*%
X107142428Y-110301472D03*
%TO.P,M1,15,14/PB3_15*%
%TO.N,S1*%
X107142428Y-107761472D03*
%TO.P,M1,16,15/PB1_16*%
%TO.N,S0*%
X107142428Y-105221472D03*
%TO.P,M1,17,A0/PF7_17*%
%TO.N,ROW4*%
X107142428Y-102681472D03*
%TO.P,M1,18,A1/PF6_18*%
%TO.N,ROW1*%
X107142428Y-100141472D03*
%TO.P,M1,19,A2/PF5_19*%
%TO.N,ROW6*%
X107142428Y-97601472D03*
%TO.P,M1,20,A3/PF4_20*%
%TO.N,ROW7*%
X107142428Y-95061472D03*
%TO.P,M1,21,VCC_21*%
%TO.N,+5V*%
X107142428Y-92521472D03*
%TO.P,M1,22,RST_22*%
%TO.N,Net-(M1-RST)*%
X107142428Y-89981472D03*
%TO.P,M1,23,GND_23*%
%TO.N,GND*%
X107142428Y-87441472D03*
%TO.P,M1,24,RAW_24*%
%TO.N,unconnected-(M1-RAW-Pad24)*%
X107142428Y-84901472D03*
%TD*%
D13*
%TO.P,JP2,1,A_1*%
%TO.N,JPR_CONF2*%
X102100001Y-131400000D03*
%TO.P,JP2,2,B_2*%
%TO.N,COL8*%
X103399999Y-131400000D03*
%TD*%
%TO.P,JP4,1,A_1*%
%TO.N,JPR_CONF0*%
X86150000Y-138300000D03*
%TO.P,JP4,2,B_2*%
%TO.N,ROW5*%
X84850000Y-138300000D03*
%TD*%
%TO.P,JP1,1,A_1*%
%TO.N,LEDK3*%
X102700001Y-128200000D03*
%TO.P,JP1,2,B_2*%
%TO.N,COL8*%
X103999999Y-128200000D03*
%TD*%
%TO.P,JP3,1,A_1*%
%TO.N,JPR_CONF1*%
X87000000Y-134300000D03*
%TO.P,JP3,2,B_2*%
%TO.N,ROW7*%
X85700000Y-134300000D03*
%TD*%
D14*
%TO.N,ROW5*%
X82200000Y-136200000D03*
X86000000Y-83600000D03*
%TO.N,GND*%
X113400000Y-100100000D03*
X110600000Y-128800000D03*
X110600000Y-135300000D03*
X110600000Y-131100000D03*
X110600000Y-126100000D03*
X90600000Y-119000000D03*
X110400000Y-119000000D03*
X90400000Y-121500000D03*
X86600000Y-95000000D03*
X86600000Y-87400000D03*
X110600000Y-138600000D03*
X86600000Y-84900000D03*
X113400000Y-95100000D03*
X110600000Y-133400000D03*
X113400000Y-97600000D03*
X113400000Y-102700000D03*
X110600000Y-128100000D03*
X110400000Y-115000000D03*
X86600000Y-97600000D03*
X88600000Y-119000000D03*
%TO.N,ROW0*%
X82800000Y-135800000D03*
X86000000Y-86200000D03*
%TO.N,ROW3*%
X83400000Y-135400000D03*
X86000000Y-93800000D03*
%TO.N,ROW2*%
X84200000Y-135200000D03*
X86000000Y-96400000D03*
%TO.N,S3*%
X112400000Y-115584500D03*
X114800000Y-135900000D03*
X114900000Y-127400000D03*
%TO.N,TP_CLK*%
X89400000Y-124600000D03*
%TO.N,TP_DATA*%
X91600000Y-123000000D03*
X91600000Y-114800000D03*
%TO.N,S2*%
X115400000Y-136500000D03*
X115500000Y-129400000D03*
%TO.N,S1*%
X116100000Y-137200000D03*
X116200000Y-130000000D03*
%TO.N,S0*%
X116800000Y-130700000D03*
X116800000Y-137800000D03*
%TO.N,ROW7*%
X85200000Y-132400000D03*
%TO.N,+5V*%
X108800000Y-121500000D03*
X108800000Y-134700000D03*
X108800000Y-138600000D03*
X108800000Y-131000000D03*
%TO.N,COL8*%
X105875000Y-130025000D03*
%TO.N,LEDK0*%
X86600000Y-100200000D03*
X84800000Y-130400000D03*
%TO.N,LEDK1*%
X85600000Y-130000000D03*
X85600000Y-130000000D03*
X86600000Y-102600000D03*
%TO.N,LEDK2*%
X86700000Y-105200000D03*
X86200000Y-128800000D03*
%TO.N,LEDK3*%
X86700000Y-107800000D03*
X102000000Y-120000000D03*
X101900000Y-126300000D03*
X86800000Y-120000000D03*
%TO.N,TP_RST*%
X97200000Y-127600000D03*
X95800000Y-121400000D03*
%TO.N,JPR_CONF0*%
X87800000Y-137300000D03*
%TO.N,JPR_CONF1*%
X87100000Y-132800000D03*
%TO.N,JPR_CONF2*%
X98600000Y-129200000D03*
%TD*%
%TO.N,ROW5*%
D15*
X82200000Y-87400000D02*
X86000000Y-83600000D01*
X84850000Y-138300000D02*
X83500000Y-138300000D01*
X83000000Y-137800000D02*
X83000000Y-137000000D01*
X83500000Y-138300000D02*
X83000000Y-137800000D01*
X82200000Y-136200000D02*
X82200000Y-87400000D01*
X83000000Y-137000000D02*
X82200000Y-136200000D01*
%TO.N,GND*%
D16*
X110600000Y-138600000D02*
X110600000Y-139400000D01*
X88600000Y-95823900D02*
X88600000Y-119000000D01*
D17*
X91902428Y-92521472D02*
X86678528Y-92521472D01*
D16*
X113400000Y-102700000D02*
X113400000Y-95100000D01*
D17*
X86678528Y-92521472D02*
X86600000Y-92600000D01*
X86600000Y-84900000D02*
X86600000Y-87400000D01*
D16*
X110400000Y-119000000D02*
X110600000Y-119200000D01*
D17*
X86600000Y-92600000D02*
X86600000Y-95000000D01*
X86600000Y-87400000D02*
X86600000Y-92600000D01*
X86600000Y-95000000D02*
X86600000Y-97600000D01*
D16*
X110600000Y-119200000D02*
X110600000Y-138600000D01*
X91902428Y-92521472D02*
X88600000Y-95823900D01*
D17*
X90400000Y-121500000D02*
X90400000Y-119200000D01*
X90400000Y-119200000D02*
X90600000Y-119000000D01*
X110400000Y-119000000D02*
X110400000Y-115000000D01*
%TO.N,ROW0*%
D15*
X82800000Y-89400000D02*
X86000000Y-86200000D01*
X82800000Y-135800000D02*
X82800000Y-89400000D01*
%TO.N,ROW3*%
D18*
X85800000Y-94000000D02*
X85900000Y-93900000D01*
D15*
X83400000Y-96400000D02*
X85800000Y-94000000D01*
D18*
X85800000Y-94000000D02*
X86000000Y-93800000D01*
D15*
X83400000Y-135400000D02*
X83400000Y-96400000D01*
%TO.N,ROW2*%
X84200000Y-135200000D02*
X84200000Y-98200000D01*
X84200000Y-98200000D02*
X86000000Y-96400000D01*
%TO.N,S3*%
D19*
X112400000Y-115584500D02*
X112400000Y-115600000D01*
D15*
X114900000Y-118100000D02*
X114900000Y-127400000D01*
D19*
X114800000Y-127500000D02*
X114900000Y-127400000D01*
D15*
X112400000Y-115600000D02*
X114900000Y-118100000D01*
X114800000Y-135900000D02*
X114800000Y-127500000D01*
%TO.N,TP_CLK*%
X89400000Y-124600000D02*
X89400000Y-115343900D01*
X89400000Y-115343900D02*
X91902428Y-112841472D01*
%TO.N,TP_DATA*%
X91600000Y-123000000D02*
X91600000Y-114800000D01*
%TO.N,S2*%
X115500000Y-117700000D02*
X115500000Y-129400000D01*
X108101472Y-110301472D02*
X115500000Y-117700000D01*
X115400000Y-136500000D02*
X115400000Y-129500000D01*
X107142428Y-110301472D02*
X108101472Y-110301472D01*
D19*
X115400000Y-129500000D02*
X115500000Y-129400000D01*
%TO.N,S1*%
D15*
X116200000Y-137100000D02*
X116200000Y-130000000D01*
D19*
X116100000Y-137200000D02*
X116200000Y-137100000D01*
D15*
X116200000Y-130000000D02*
X116200000Y-116819044D01*
X116200000Y-116819044D02*
X107142428Y-107761472D01*
%TO.N,S0*%
X116800000Y-114879044D02*
X107142428Y-105221472D01*
X116800000Y-137800000D02*
X116800000Y-130700000D01*
X116800000Y-130700000D02*
X116800000Y-114879044D01*
%TO.N,ROW7*%
X85700000Y-132900000D02*
X85200000Y-132400000D01*
X85700000Y-134300000D02*
X85700000Y-132900000D01*
%TO.N,+5V*%
D16*
X108800000Y-138600000D02*
X108800000Y-121500000D01*
%TO.N,COL8*%
D15*
X103999999Y-128200000D02*
X105500000Y-128200000D01*
X105875000Y-130025000D02*
X104600000Y-131300000D01*
X105500000Y-128200000D02*
X105875000Y-128575000D01*
X104600000Y-131300000D02*
X103499999Y-131300000D01*
X103499999Y-131300000D02*
X103399999Y-131400000D01*
X105875000Y-128575000D02*
X105875000Y-130025000D01*
%TO.N,LEDK0*%
X84800000Y-102000000D02*
X86600000Y-100200000D01*
X84800000Y-130400000D02*
X84800000Y-102000000D01*
%TO.N,LEDK1*%
X86600000Y-102600000D02*
X85400000Y-103800000D01*
X85400000Y-103800000D02*
X85400000Y-129800000D01*
X85400000Y-129800000D02*
X85600000Y-130000000D01*
%TO.N,LEDK2*%
X86700000Y-105200000D02*
X86600000Y-105200000D01*
X86200000Y-105600000D02*
X86200000Y-128800000D01*
X86600000Y-105200000D02*
X86200000Y-105600000D01*
%TO.N,LEDK3*%
X101900000Y-127600000D02*
X102500000Y-128200000D01*
X86800000Y-108400000D02*
X86700000Y-108300000D01*
D19*
X102000000Y-126200000D02*
X101900000Y-126300000D01*
D15*
X102000000Y-120000000D02*
X102000000Y-126200000D01*
X101900000Y-126300000D02*
X101900000Y-127600000D01*
X86800000Y-120000000D02*
X86800000Y-108400000D01*
X102500000Y-128200000D02*
X102700001Y-128200000D01*
X86700000Y-108300000D02*
X86700000Y-107800000D01*
%TO.N,TP_RST*%
X95800000Y-126200000D02*
X95800000Y-121400000D01*
X97200000Y-127600000D02*
X95800000Y-126200000D01*
%TO.N,JPR_CONF0*%
X86150000Y-138300000D02*
X86800000Y-138300000D01*
X86800000Y-138300000D02*
X87800000Y-137300000D01*
%TO.N,JPR_CONF1*%
X87000000Y-134300000D02*
X87000000Y-132900000D01*
X87000000Y-132900000D02*
X87100000Y-132800000D01*
%TO.N,JPR_CONF2*%
X98600000Y-129200000D02*
X100800000Y-131400000D01*
X100800000Y-131400000D02*
X102100001Y-131400000D01*
%TD*%
M02*
