M48
; DRILL file KiCad 10.0.4+b1 date 2026-07-15T16:48:21
; FORMAT={-:-/ absolute / metric / decimal}
; #@! TF.CreationDate,2026-07-15T16:48:21+10:00
; #@! TF.GenerationSoftware,Kicad,Pcbnew,10.0.4+b1
; #@! TF.FileFunction,Plated,1,2,PTH
FMAT,2
METRIC
; #@! TA.AperFunction,Plated,PTH,ViaDrill
T1C0.200
; #@! TA.AperFunction,Plated,PTH,ComponentDrill
T2C1.000
; #@! TA.AperFunction,Plated,PTH,ComponentDrill
T3C1.100
; #@! TA.AperFunction,Plated,PTH,ComponentDrill
T4C1.500
%
G90
G05
T1
X82.2Y-136.2
X82.8Y-135.8
X83.4Y-135.4
X84.2Y-135.2
X84.8Y-130.4
X85.2Y-132.4
X85.6Y-130.0
X85.6Y-130.0
X86.0Y-83.6
X86.0Y-86.2
X86.0Y-93.8
X86.0Y-96.4
X86.2Y-128.8
X86.6Y-84.9
X86.6Y-87.4
X86.6Y-95.0
X86.6Y-97.6
X86.6Y-100.2
X86.6Y-102.6
X86.7Y-105.2
X86.7Y-107.8
X86.8Y-120.0
X87.1Y-132.8
X87.8Y-137.3
X88.6Y-119.0
X89.4Y-124.6
X90.4Y-121.5
X90.6Y-119.0
X91.6Y-114.8
X91.6Y-123.0
X95.8Y-121.4
X97.2Y-127.6
X98.6Y-129.2
X101.9Y-126.3
X102.0Y-120.0
X105.875Y-130.025
X108.8Y-121.5
X108.8Y-131.0
X108.8Y-134.7
X108.8Y-138.6
X110.4Y-115.0
X110.4Y-119.0
X110.6Y-126.1
X110.6Y-128.1
X110.6Y-128.8
X110.6Y-131.1
X110.6Y-133.4
X110.6Y-135.3
X110.6Y-138.6
X112.4Y-115.584
X113.4Y-95.1
X113.4Y-97.6
X113.4Y-100.1
X113.4Y-102.7
X114.8Y-135.9
X114.9Y-127.4
X115.4Y-136.5
X115.5Y-129.4
X116.1Y-137.2
X116.2Y-130.0
X116.8Y-130.7
X116.8Y-137.8
T2
X111.55Y-86.675
X116.05Y-86.675
T3
X91.902Y-84.901
X91.902Y-87.441
X91.902Y-89.981
X91.902Y-92.521
X91.902Y-95.061
X91.902Y-97.601
X91.902Y-100.141
X91.902Y-102.681
X91.902Y-105.221
X91.902Y-107.761
X91.902Y-110.301
X91.902Y-112.841
X107.142Y-84.901
X107.142Y-87.441
X107.142Y-89.981
X107.142Y-92.521
X107.142Y-95.061
X107.142Y-97.601
X107.142Y-100.141
X107.142Y-102.681
X107.142Y-105.221
X107.142Y-107.761
X107.142Y-110.301
X107.142Y-112.841
T4
X110.3Y-89.175
X117.3Y-89.175
M30
