%TF.GenerationSoftware,KiCad,Pcbnew,10.0.4+b1*%
%TF.CreationDate,2026-07-15T16:48:26+10:00*%
%TF.ProjectId,TP_AVR,54505f41-5652-42e6-9b69-6361645f7063,A*%
%TF.SameCoordinates,Original*%
%TF.FileFunction,Soldermask,Bot*%
%TF.FilePolarity,Negative*%
%FSLAX46Y46*%
G04 Gerber Fmt 4.6, Leading zero omitted, Abs format (unit mm)*
G04 Created by KiCad (PCBNEW 10.0.4+b1) date 2026-07-15 16:48:26*
%MOMM*%
%LPD*%
G01*
G04 APERTURE LIST*
%ADD10C,0.000000*%
%ADD11C,2.400000*%
%ADD12C,1.700000*%
%ADD13C,2.200000*%
%ADD14C,1.600000*%
%ADD15R,1.000000X1.500000*%
G04 APERTURE END LIST*
D10*
%TO.C,JP2*%
G36*
X102900000Y-132150000D02*
G01*
X102600000Y-132150000D01*
X102600000Y-130650000D01*
X102900000Y-130650000D01*
X102900000Y-132150000D01*
G37*
%TO.C,JP4*%
G36*
X85350000Y-137550000D02*
G01*
X85650000Y-137550000D01*
X85650000Y-139050000D01*
X85350000Y-139050000D01*
X85350000Y-137550000D01*
G37*
%TO.C,JP1*%
G36*
X103500000Y-128950000D02*
G01*
X103200000Y-128950000D01*
X103200000Y-127450000D01*
X103500000Y-127450000D01*
X103500000Y-128950000D01*
G37*
%TO.C,JP3*%
G36*
X86200000Y-133550000D02*
G01*
X86500000Y-133550000D01*
X86500000Y-135050000D01*
X86200000Y-135050000D01*
X86200000Y-133550000D01*
G37*
%TD*%
D11*
%TO.C,SW1*%
X110299999Y-89175000D03*
X117299999Y-89175000D03*
D12*
X111549999Y-86675000D03*
X116049999Y-86675000D03*
%TD*%
D13*
%TO.C,H1*%
X81000000Y-82000000D03*
%TD*%
%TO.C,H4*%
X119000000Y-138000000D03*
%TD*%
D14*
%TO.C,M1*%
X91902428Y-84901472D03*
X91902428Y-87441472D03*
X91902428Y-89981472D03*
X91902428Y-92521472D03*
X91902428Y-95061472D03*
X91902428Y-97601472D03*
X91902428Y-100141472D03*
X91902428Y-102681472D03*
X91902428Y-105221472D03*
X91902428Y-107761472D03*
X91902428Y-110301472D03*
X91902428Y-112841472D03*
X107142428Y-112841472D03*
X107142428Y-110301472D03*
X107142428Y-107761472D03*
X107142428Y-105221472D03*
X107142428Y-102681472D03*
X107142428Y-100141472D03*
X107142428Y-97601472D03*
X107142428Y-95061472D03*
X107142428Y-92521472D03*
X107142428Y-89981472D03*
X107142428Y-87441472D03*
X107142428Y-84901472D03*
%TD*%
D13*
%TO.C,H2*%
X119000000Y-82000000D03*
%TD*%
%TO.C,H3*%
X81000000Y-138000000D03*
%TD*%
D15*
%TO.C,JP2*%
X102100001Y-131400000D03*
X103399999Y-131400000D03*
%TD*%
%TO.C,JP4*%
X86150000Y-138300000D03*
X84850000Y-138300000D03*
%TD*%
%TO.C,JP1*%
X102700001Y-128200000D03*
X103999999Y-128200000D03*
%TD*%
%TO.C,JP3*%
X87000000Y-134300000D03*
X85700000Y-134300000D03*
%TD*%
M02*
