%TF.GenerationSoftware,KiCad,Pcbnew,10.0.4+b1*%
%TF.CreationDate,2026-07-15T16:48:25+10:00*%
%TF.ProjectId,TP_AVR,54505f41-5652-42e6-9b69-6361645f7063,A*%
%TF.SameCoordinates,Original*%
%TF.FileFunction,Legend,Top*%
%TF.FilePolarity,Positive*%
%FSLAX46Y46*%
G04 Gerber Fmt 4.6, Leading zero omitted, Abs format (unit mm)*
G04 Created by KiCad (PCBNEW 10.0.4+b1) date 2026-07-15 16:48:25*
%MOMM*%
%LPD*%
G01*
G04 APERTURE LIST*
%ADD10C,0.150000*%
%ADD11C,0.120000*%
%ADD12C,0.100000*%
G04 APERTURE END LIST*
D10*
X118659875Y-131691792D02*
X118183684Y-132025125D01*
X118659875Y-132263220D02*
X117659875Y-132263220D01*
X117659875Y-132263220D02*
X117659875Y-131882268D01*
X117659875Y-131882268D02*
X117707494Y-131787030D01*
X117707494Y-131787030D02*
X117755113Y-131739411D01*
X117755113Y-131739411D02*
X117850351Y-131691792D01*
X117850351Y-131691792D02*
X117993208Y-131691792D01*
X117993208Y-131691792D02*
X118088446Y-131739411D01*
X118088446Y-131739411D02*
X118136065Y-131787030D01*
X118136065Y-131787030D02*
X118183684Y-131882268D01*
X118183684Y-131882268D02*
X118183684Y-132263220D01*
X118612256Y-130882268D02*
X118659875Y-130977506D01*
X118659875Y-130977506D02*
X118659875Y-131167982D01*
X118659875Y-131167982D02*
X118612256Y-131263220D01*
X118612256Y-131263220D02*
X118517017Y-131310839D01*
X118517017Y-131310839D02*
X118136065Y-131310839D01*
X118136065Y-131310839D02*
X118040827Y-131263220D01*
X118040827Y-131263220D02*
X117993208Y-131167982D01*
X117993208Y-131167982D02*
X117993208Y-130977506D01*
X117993208Y-130977506D02*
X118040827Y-130882268D01*
X118040827Y-130882268D02*
X118136065Y-130834649D01*
X118136065Y-130834649D02*
X118231303Y-130834649D01*
X118231303Y-130834649D02*
X118326541Y-131310839D01*
X118659875Y-130263220D02*
X118612256Y-130358458D01*
X118612256Y-130358458D02*
X118517017Y-130406077D01*
X118517017Y-130406077D02*
X117659875Y-130406077D01*
X118612256Y-129501315D02*
X118659875Y-129596553D01*
X118659875Y-129596553D02*
X118659875Y-129787029D01*
X118659875Y-129787029D02*
X118612256Y-129882267D01*
X118612256Y-129882267D02*
X118517017Y-129929886D01*
X118517017Y-129929886D02*
X118136065Y-129929886D01*
X118136065Y-129929886D02*
X118040827Y-129882267D01*
X118040827Y-129882267D02*
X117993208Y-129787029D01*
X117993208Y-129787029D02*
X117993208Y-129596553D01*
X117993208Y-129596553D02*
X118040827Y-129501315D01*
X118040827Y-129501315D02*
X118136065Y-129453696D01*
X118136065Y-129453696D02*
X118231303Y-129453696D01*
X118231303Y-129453696D02*
X118326541Y-129929886D01*
X118659875Y-128596553D02*
X118136065Y-128596553D01*
X118136065Y-128596553D02*
X118040827Y-128644172D01*
X118040827Y-128644172D02*
X117993208Y-128739410D01*
X117993208Y-128739410D02*
X117993208Y-128929886D01*
X117993208Y-128929886D02*
X118040827Y-129025124D01*
X118612256Y-128596553D02*
X118659875Y-128691791D01*
X118659875Y-128691791D02*
X118659875Y-128929886D01*
X118659875Y-128929886D02*
X118612256Y-129025124D01*
X118612256Y-129025124D02*
X118517017Y-129072743D01*
X118517017Y-129072743D02*
X118421779Y-129072743D01*
X118421779Y-129072743D02*
X118326541Y-129025124D01*
X118326541Y-129025124D02*
X118278922Y-128929886D01*
X118278922Y-128929886D02*
X118278922Y-128691791D01*
X118278922Y-128691791D02*
X118231303Y-128596553D01*
X118612256Y-128167981D02*
X118659875Y-128072743D01*
X118659875Y-128072743D02*
X118659875Y-127882267D01*
X118659875Y-127882267D02*
X118612256Y-127787029D01*
X118612256Y-127787029D02*
X118517017Y-127739410D01*
X118517017Y-127739410D02*
X118469398Y-127739410D01*
X118469398Y-127739410D02*
X118374160Y-127787029D01*
X118374160Y-127787029D02*
X118326541Y-127882267D01*
X118326541Y-127882267D02*
X118326541Y-128025124D01*
X118326541Y-128025124D02*
X118278922Y-128120362D01*
X118278922Y-128120362D02*
X118183684Y-128167981D01*
X118183684Y-128167981D02*
X118136065Y-128167981D01*
X118136065Y-128167981D02*
X118040827Y-128120362D01*
X118040827Y-128120362D02*
X117993208Y-128025124D01*
X117993208Y-128025124D02*
X117993208Y-127882267D01*
X117993208Y-127882267D02*
X118040827Y-127787029D01*
X118612256Y-126929886D02*
X118659875Y-127025124D01*
X118659875Y-127025124D02*
X118659875Y-127215600D01*
X118659875Y-127215600D02*
X118612256Y-127310838D01*
X118612256Y-127310838D02*
X118517017Y-127358457D01*
X118517017Y-127358457D02*
X118136065Y-127358457D01*
X118136065Y-127358457D02*
X118040827Y-127310838D01*
X118040827Y-127310838D02*
X117993208Y-127215600D01*
X117993208Y-127215600D02*
X117993208Y-127025124D01*
X117993208Y-127025124D02*
X118040827Y-126929886D01*
X118040827Y-126929886D02*
X118136065Y-126882267D01*
X118136065Y-126882267D02*
X118231303Y-126882267D01*
X118231303Y-126882267D02*
X118326541Y-127358457D01*
X117993208Y-125834647D02*
X117993208Y-125453695D01*
X117659875Y-125691790D02*
X118517017Y-125691790D01*
X118517017Y-125691790D02*
X118612256Y-125644171D01*
X118612256Y-125644171D02*
X118659875Y-125548933D01*
X118659875Y-125548933D02*
X118659875Y-125453695D01*
X118659875Y-125120361D02*
X117659875Y-125120361D01*
X118659875Y-124691790D02*
X118136065Y-124691790D01*
X118136065Y-124691790D02*
X118040827Y-124739409D01*
X118040827Y-124739409D02*
X117993208Y-124834647D01*
X117993208Y-124834647D02*
X117993208Y-124977504D01*
X117993208Y-124977504D02*
X118040827Y-125072742D01*
X118040827Y-125072742D02*
X118088446Y-125120361D01*
X118612256Y-123834647D02*
X118659875Y-123929885D01*
X118659875Y-123929885D02*
X118659875Y-124120361D01*
X118659875Y-124120361D02*
X118612256Y-124215599D01*
X118612256Y-124215599D02*
X118517017Y-124263218D01*
X118517017Y-124263218D02*
X118136065Y-124263218D01*
X118136065Y-124263218D02*
X118040827Y-124215599D01*
X118040827Y-124215599D02*
X117993208Y-124120361D01*
X117993208Y-124120361D02*
X117993208Y-123929885D01*
X117993208Y-123929885D02*
X118040827Y-123834647D01*
X118040827Y-123834647D02*
X118136065Y-123787028D01*
X118136065Y-123787028D02*
X118231303Y-123787028D01*
X118231303Y-123787028D02*
X118326541Y-124263218D01*
X118659875Y-122167980D02*
X117659875Y-122167980D01*
X118612256Y-122167980D02*
X118659875Y-122263218D01*
X118659875Y-122263218D02*
X118659875Y-122453694D01*
X118659875Y-122453694D02*
X118612256Y-122548932D01*
X118612256Y-122548932D02*
X118564636Y-122596551D01*
X118564636Y-122596551D02*
X118469398Y-122644170D01*
X118469398Y-122644170D02*
X118183684Y-122644170D01*
X118183684Y-122644170D02*
X118088446Y-122596551D01*
X118088446Y-122596551D02*
X118040827Y-122548932D01*
X118040827Y-122548932D02*
X117993208Y-122453694D01*
X117993208Y-122453694D02*
X117993208Y-122263218D01*
X117993208Y-122263218D02*
X118040827Y-122167980D01*
X118612256Y-121310837D02*
X118659875Y-121406075D01*
X118659875Y-121406075D02*
X118659875Y-121596551D01*
X118659875Y-121596551D02*
X118612256Y-121691789D01*
X118612256Y-121691789D02*
X118517017Y-121739408D01*
X118517017Y-121739408D02*
X118136065Y-121739408D01*
X118136065Y-121739408D02*
X118040827Y-121691789D01*
X118040827Y-121691789D02*
X117993208Y-121596551D01*
X117993208Y-121596551D02*
X117993208Y-121406075D01*
X117993208Y-121406075D02*
X118040827Y-121310837D01*
X118040827Y-121310837D02*
X118136065Y-121263218D01*
X118136065Y-121263218D02*
X118231303Y-121263218D01*
X118231303Y-121263218D02*
X118326541Y-121739408D01*
X118612256Y-120882265D02*
X118659875Y-120787027D01*
X118659875Y-120787027D02*
X118659875Y-120596551D01*
X118659875Y-120596551D02*
X118612256Y-120501313D01*
X118612256Y-120501313D02*
X118517017Y-120453694D01*
X118517017Y-120453694D02*
X118469398Y-120453694D01*
X118469398Y-120453694D02*
X118374160Y-120501313D01*
X118374160Y-120501313D02*
X118326541Y-120596551D01*
X118326541Y-120596551D02*
X118326541Y-120739408D01*
X118326541Y-120739408D02*
X118278922Y-120834646D01*
X118278922Y-120834646D02*
X118183684Y-120882265D01*
X118183684Y-120882265D02*
X118136065Y-120882265D01*
X118136065Y-120882265D02*
X118040827Y-120834646D01*
X118040827Y-120834646D02*
X117993208Y-120739408D01*
X117993208Y-120739408D02*
X117993208Y-120596551D01*
X117993208Y-120596551D02*
X118040827Y-120501313D01*
X118659875Y-120025122D02*
X117993208Y-120025122D01*
X117659875Y-120025122D02*
X117707494Y-120072741D01*
X117707494Y-120072741D02*
X117755113Y-120025122D01*
X117755113Y-120025122D02*
X117707494Y-119977503D01*
X117707494Y-119977503D02*
X117659875Y-120025122D01*
X117659875Y-120025122D02*
X117755113Y-120025122D01*
X117993208Y-119120361D02*
X118802732Y-119120361D01*
X118802732Y-119120361D02*
X118897970Y-119167980D01*
X118897970Y-119167980D02*
X118945589Y-119215599D01*
X118945589Y-119215599D02*
X118993208Y-119310837D01*
X118993208Y-119310837D02*
X118993208Y-119453694D01*
X118993208Y-119453694D02*
X118945589Y-119548932D01*
X118612256Y-119120361D02*
X118659875Y-119215599D01*
X118659875Y-119215599D02*
X118659875Y-119406075D01*
X118659875Y-119406075D02*
X118612256Y-119501313D01*
X118612256Y-119501313D02*
X118564636Y-119548932D01*
X118564636Y-119548932D02*
X118469398Y-119596551D01*
X118469398Y-119596551D02*
X118183684Y-119596551D01*
X118183684Y-119596551D02*
X118088446Y-119548932D01*
X118088446Y-119548932D02*
X118040827Y-119501313D01*
X118040827Y-119501313D02*
X117993208Y-119406075D01*
X117993208Y-119406075D02*
X117993208Y-119215599D01*
X117993208Y-119215599D02*
X118040827Y-119120361D01*
X117993208Y-118644170D02*
X118659875Y-118644170D01*
X118088446Y-118644170D02*
X118040827Y-118596551D01*
X118040827Y-118596551D02*
X117993208Y-118501313D01*
X117993208Y-118501313D02*
X117993208Y-118358456D01*
X117993208Y-118358456D02*
X118040827Y-118263218D01*
X118040827Y-118263218D02*
X118136065Y-118215599D01*
X118136065Y-118215599D02*
X118659875Y-118215599D01*
X117993208Y-117120360D02*
X117993208Y-116739408D01*
X118659875Y-116977503D02*
X117802732Y-116977503D01*
X117802732Y-116977503D02*
X117707494Y-116929884D01*
X117707494Y-116929884D02*
X117659875Y-116834646D01*
X117659875Y-116834646D02*
X117659875Y-116739408D01*
X118659875Y-116406074D02*
X117993208Y-116406074D01*
X117659875Y-116406074D02*
X117707494Y-116453693D01*
X117707494Y-116453693D02*
X117755113Y-116406074D01*
X117755113Y-116406074D02*
X117707494Y-116358455D01*
X117707494Y-116358455D02*
X117659875Y-116406074D01*
X117659875Y-116406074D02*
X117755113Y-116406074D01*
X118659875Y-115787027D02*
X118612256Y-115882265D01*
X118612256Y-115882265D02*
X118517017Y-115929884D01*
X118517017Y-115929884D02*
X117659875Y-115929884D01*
X118612256Y-115025122D02*
X118659875Y-115120360D01*
X118659875Y-115120360D02*
X118659875Y-115310836D01*
X118659875Y-115310836D02*
X118612256Y-115406074D01*
X118612256Y-115406074D02*
X118517017Y-115453693D01*
X118517017Y-115453693D02*
X118136065Y-115453693D01*
X118136065Y-115453693D02*
X118040827Y-115406074D01*
X118040827Y-115406074D02*
X117993208Y-115310836D01*
X117993208Y-115310836D02*
X117993208Y-115120360D01*
X117993208Y-115120360D02*
X118040827Y-115025122D01*
X118040827Y-115025122D02*
X118136065Y-114977503D01*
X118136065Y-114977503D02*
X118231303Y-114977503D01*
X118231303Y-114977503D02*
X118326541Y-115453693D01*
X118612256Y-114596550D02*
X118659875Y-114501312D01*
X118659875Y-114501312D02*
X118659875Y-114310836D01*
X118659875Y-114310836D02*
X118612256Y-114215598D01*
X118612256Y-114215598D02*
X118517017Y-114167979D01*
X118517017Y-114167979D02*
X118469398Y-114167979D01*
X118469398Y-114167979D02*
X118374160Y-114215598D01*
X118374160Y-114215598D02*
X118326541Y-114310836D01*
X118326541Y-114310836D02*
X118326541Y-114453693D01*
X118326541Y-114453693D02*
X118278922Y-114548931D01*
X118278922Y-114548931D02*
X118183684Y-114596550D01*
X118183684Y-114596550D02*
X118136065Y-114596550D01*
X118136065Y-114596550D02*
X118040827Y-114548931D01*
X118040827Y-114548931D02*
X117993208Y-114453693D01*
X117993208Y-114453693D02*
X117993208Y-114310836D01*
X117993208Y-114310836D02*
X118040827Y-114215598D01*
X119603152Y-132263220D02*
X120269819Y-132263220D01*
X119698390Y-132263220D02*
X119650771Y-132215601D01*
X119650771Y-132215601D02*
X119603152Y-132120363D01*
X119603152Y-132120363D02*
X119603152Y-131977506D01*
X119603152Y-131977506D02*
X119650771Y-131882268D01*
X119650771Y-131882268D02*
X119746009Y-131834649D01*
X119746009Y-131834649D02*
X120269819Y-131834649D01*
X120222200Y-130977506D02*
X120269819Y-131072744D01*
X120269819Y-131072744D02*
X120269819Y-131263220D01*
X120269819Y-131263220D02*
X120222200Y-131358458D01*
X120222200Y-131358458D02*
X120126961Y-131406077D01*
X120126961Y-131406077D02*
X119746009Y-131406077D01*
X119746009Y-131406077D02*
X119650771Y-131358458D01*
X119650771Y-131358458D02*
X119603152Y-131263220D01*
X119603152Y-131263220D02*
X119603152Y-131072744D01*
X119603152Y-131072744D02*
X119650771Y-130977506D01*
X119650771Y-130977506D02*
X119746009Y-130929887D01*
X119746009Y-130929887D02*
X119841247Y-130929887D01*
X119841247Y-130929887D02*
X119936485Y-131406077D01*
X120269819Y-130596553D02*
X119603152Y-130072744D01*
X119603152Y-130596553D02*
X120269819Y-130072744D01*
X119603152Y-129834648D02*
X119603152Y-129453696D01*
X119269819Y-129691791D02*
X120126961Y-129691791D01*
X120126961Y-129691791D02*
X120222200Y-129644172D01*
X120222200Y-129644172D02*
X120269819Y-129548934D01*
X120269819Y-129548934D02*
X120269819Y-129453696D01*
X119603152Y-128501314D02*
X119603152Y-128120362D01*
X119269819Y-128358457D02*
X120126961Y-128358457D01*
X120126961Y-128358457D02*
X120222200Y-128310838D01*
X120222200Y-128310838D02*
X120269819Y-128215600D01*
X120269819Y-128215600D02*
X120269819Y-128120362D01*
X120269819Y-127787028D02*
X119603152Y-127787028D01*
X119269819Y-127787028D02*
X119317438Y-127834647D01*
X119317438Y-127834647D02*
X119365057Y-127787028D01*
X119365057Y-127787028D02*
X119317438Y-127739409D01*
X119317438Y-127739409D02*
X119269819Y-127787028D01*
X119269819Y-127787028D02*
X119365057Y-127787028D01*
X120269819Y-127310838D02*
X119603152Y-127310838D01*
X119698390Y-127310838D02*
X119650771Y-127263219D01*
X119650771Y-127263219D02*
X119603152Y-127167981D01*
X119603152Y-127167981D02*
X119603152Y-127025124D01*
X119603152Y-127025124D02*
X119650771Y-126929886D01*
X119650771Y-126929886D02*
X119746009Y-126882267D01*
X119746009Y-126882267D02*
X120269819Y-126882267D01*
X119746009Y-126882267D02*
X119650771Y-126834648D01*
X119650771Y-126834648D02*
X119603152Y-126739410D01*
X119603152Y-126739410D02*
X119603152Y-126596553D01*
X119603152Y-126596553D02*
X119650771Y-126501314D01*
X119650771Y-126501314D02*
X119746009Y-126453695D01*
X119746009Y-126453695D02*
X120269819Y-126453695D01*
X120222200Y-125596553D02*
X120269819Y-125691791D01*
X120269819Y-125691791D02*
X120269819Y-125882267D01*
X120269819Y-125882267D02*
X120222200Y-125977505D01*
X120222200Y-125977505D02*
X120126961Y-126025124D01*
X120126961Y-126025124D02*
X119746009Y-126025124D01*
X119746009Y-126025124D02*
X119650771Y-125977505D01*
X119650771Y-125977505D02*
X119603152Y-125882267D01*
X119603152Y-125882267D02*
X119603152Y-125691791D01*
X119603152Y-125691791D02*
X119650771Y-125596553D01*
X119650771Y-125596553D02*
X119746009Y-125548934D01*
X119746009Y-125548934D02*
X119841247Y-125548934D01*
X119841247Y-125548934D02*
X119936485Y-126025124D01*
X120174580Y-125120362D02*
X120222200Y-125072743D01*
X120222200Y-125072743D02*
X120269819Y-125120362D01*
X120269819Y-125120362D02*
X120222200Y-125167981D01*
X120222200Y-125167981D02*
X120174580Y-125120362D01*
X120174580Y-125120362D02*
X120269819Y-125120362D01*
X119888866Y-125120362D02*
X119317438Y-125167981D01*
X119317438Y-125167981D02*
X119269819Y-125120362D01*
X119269819Y-125120362D02*
X119317438Y-125072743D01*
X119317438Y-125072743D02*
X119888866Y-125120362D01*
X119888866Y-125120362D02*
X119269819Y-125120362D01*
X85009523Y-85454819D02*
X84676190Y-84978628D01*
X84438095Y-85454819D02*
X84438095Y-84454819D01*
X84438095Y-84454819D02*
X84819047Y-84454819D01*
X84819047Y-84454819D02*
X84914285Y-84502438D01*
X84914285Y-84502438D02*
X84961904Y-84550057D01*
X84961904Y-84550057D02*
X85009523Y-84645295D01*
X85009523Y-84645295D02*
X85009523Y-84788152D01*
X85009523Y-84788152D02*
X84961904Y-84883390D01*
X84961904Y-84883390D02*
X84914285Y-84931009D01*
X84914285Y-84931009D02*
X84819047Y-84978628D01*
X84819047Y-84978628D02*
X84438095Y-84978628D01*
X85485714Y-85454819D02*
X85676190Y-85454819D01*
X85676190Y-85454819D02*
X85771428Y-85407200D01*
X85771428Y-85407200D02*
X85819047Y-85359580D01*
X85819047Y-85359580D02*
X85914285Y-85216723D01*
X85914285Y-85216723D02*
X85961904Y-85026247D01*
X85961904Y-85026247D02*
X85961904Y-84645295D01*
X85961904Y-84645295D02*
X85914285Y-84550057D01*
X85914285Y-84550057D02*
X85866666Y-84502438D01*
X85866666Y-84502438D02*
X85771428Y-84454819D01*
X85771428Y-84454819D02*
X85580952Y-84454819D01*
X85580952Y-84454819D02*
X85485714Y-84502438D01*
X85485714Y-84502438D02*
X85438095Y-84550057D01*
X85438095Y-84550057D02*
X85390476Y-84645295D01*
X85390476Y-84645295D02*
X85390476Y-84883390D01*
X85390476Y-84883390D02*
X85438095Y-84978628D01*
X85438095Y-84978628D02*
X85485714Y-85026247D01*
X85485714Y-85026247D02*
X85580952Y-85073866D01*
X85580952Y-85073866D02*
X85771428Y-85073866D01*
X85771428Y-85073866D02*
X85866666Y-85026247D01*
X85866666Y-85026247D02*
X85914285Y-84978628D01*
X85914285Y-84978628D02*
X85961904Y-84883390D01*
X96666666Y-137954819D02*
X96666666Y-138669104D01*
X96666666Y-138669104D02*
X96619047Y-138811961D01*
X96619047Y-138811961D02*
X96523809Y-138907200D01*
X96523809Y-138907200D02*
X96380952Y-138954819D01*
X96380952Y-138954819D02*
X96285714Y-138954819D01*
X97666666Y-138954819D02*
X97095238Y-138954819D01*
X97380952Y-138954819D02*
X97380952Y-137954819D01*
X97380952Y-137954819D02*
X97285714Y-138097676D01*
X97285714Y-138097676D02*
X97190476Y-138192914D01*
X97190476Y-138192914D02*
X97095238Y-138240533D01*
X114338095Y-138504818D02*
X114338095Y-139314341D01*
X114338095Y-139314341D02*
X114385714Y-139409579D01*
X114385714Y-139409579D02*
X114433333Y-139457199D01*
X114433333Y-139457199D02*
X114528571Y-139504818D01*
X114528571Y-139504818D02*
X114719047Y-139504818D01*
X114719047Y-139504818D02*
X114814285Y-139457199D01*
X114814285Y-139457199D02*
X114861904Y-139409579D01*
X114861904Y-139409579D02*
X114909523Y-139314341D01*
X114909523Y-139314341D02*
X114909523Y-138504818D01*
X115909523Y-139504818D02*
X115338095Y-139504818D01*
X115623809Y-139504818D02*
X115623809Y-138504818D01*
X115623809Y-138504818D02*
X115528571Y-138647675D01*
X115528571Y-138647675D02*
X115433333Y-138742913D01*
X115433333Y-138742913D02*
X115338095Y-138790532D01*
X85133333Y-87954819D02*
X84800000Y-87478628D01*
X84561905Y-87954819D02*
X84561905Y-86954819D01*
X84561905Y-86954819D02*
X84942857Y-86954819D01*
X84942857Y-86954819D02*
X85038095Y-87002438D01*
X85038095Y-87002438D02*
X85085714Y-87050057D01*
X85085714Y-87050057D02*
X85133333Y-87145295D01*
X85133333Y-87145295D02*
X85133333Y-87288152D01*
X85133333Y-87288152D02*
X85085714Y-87383390D01*
X85085714Y-87383390D02*
X85038095Y-87431009D01*
X85038095Y-87431009D02*
X84942857Y-87478628D01*
X84942857Y-87478628D02*
X84561905Y-87478628D01*
X85990476Y-87288152D02*
X85990476Y-87954819D01*
X85752381Y-86907200D02*
X85514286Y-87621485D01*
X85514286Y-87621485D02*
X86133333Y-87621485D01*
X106833333Y-139559580D02*
X106785714Y-139607200D01*
X106785714Y-139607200D02*
X106642857Y-139654819D01*
X106642857Y-139654819D02*
X106547619Y-139654819D01*
X106547619Y-139654819D02*
X106404762Y-139607200D01*
X106404762Y-139607200D02*
X106309524Y-139511961D01*
X106309524Y-139511961D02*
X106261905Y-139416723D01*
X106261905Y-139416723D02*
X106214286Y-139226247D01*
X106214286Y-139226247D02*
X106214286Y-139083390D01*
X106214286Y-139083390D02*
X106261905Y-138892914D01*
X106261905Y-138892914D02*
X106309524Y-138797676D01*
X106309524Y-138797676D02*
X106404762Y-138702438D01*
X106404762Y-138702438D02*
X106547619Y-138654819D01*
X106547619Y-138654819D02*
X106642857Y-138654819D01*
X106642857Y-138654819D02*
X106785714Y-138702438D01*
X106785714Y-138702438D02*
X106833333Y-138750057D01*
X107214286Y-138750057D02*
X107261905Y-138702438D01*
X107261905Y-138702438D02*
X107357143Y-138654819D01*
X107357143Y-138654819D02*
X107595238Y-138654819D01*
X107595238Y-138654819D02*
X107690476Y-138702438D01*
X107690476Y-138702438D02*
X107738095Y-138750057D01*
X107738095Y-138750057D02*
X107785714Y-138845295D01*
X107785714Y-138845295D02*
X107785714Y-138940533D01*
X107785714Y-138940533D02*
X107738095Y-139083390D01*
X107738095Y-139083390D02*
X107166667Y-139654819D01*
X107166667Y-139654819D02*
X107785714Y-139654819D01*
X114633333Y-100596291D02*
X114300000Y-100120100D01*
X114061905Y-100596291D02*
X114061905Y-99596291D01*
X114061905Y-99596291D02*
X114442857Y-99596291D01*
X114442857Y-99596291D02*
X114538095Y-99643910D01*
X114538095Y-99643910D02*
X114585714Y-99691529D01*
X114585714Y-99691529D02*
X114633333Y-99786767D01*
X114633333Y-99786767D02*
X114633333Y-99929624D01*
X114633333Y-99929624D02*
X114585714Y-100024862D01*
X114585714Y-100024862D02*
X114538095Y-100072481D01*
X114538095Y-100072481D02*
X114442857Y-100120100D01*
X114442857Y-100120100D02*
X114061905Y-100120100D01*
X115538095Y-99596291D02*
X115061905Y-99596291D01*
X115061905Y-99596291D02*
X115014286Y-100072481D01*
X115014286Y-100072481D02*
X115061905Y-100024862D01*
X115061905Y-100024862D02*
X115157143Y-99977243D01*
X115157143Y-99977243D02*
X115395238Y-99977243D01*
X115395238Y-99977243D02*
X115490476Y-100024862D01*
X115490476Y-100024862D02*
X115538095Y-100072481D01*
X115538095Y-100072481D02*
X115585714Y-100167719D01*
X115585714Y-100167719D02*
X115585714Y-100405814D01*
X115585714Y-100405814D02*
X115538095Y-100501052D01*
X115538095Y-100501052D02*
X115490476Y-100548672D01*
X115490476Y-100548672D02*
X115395238Y-100596291D01*
X115395238Y-100596291D02*
X115157143Y-100596291D01*
X115157143Y-100596291D02*
X115061905Y-100548672D01*
X115061905Y-100548672D02*
X115014286Y-100501052D01*
X84157142Y-103154819D02*
X83823809Y-102678628D01*
X83585714Y-103154819D02*
X83585714Y-102154819D01*
X83585714Y-102154819D02*
X83966666Y-102154819D01*
X83966666Y-102154819D02*
X84061904Y-102202438D01*
X84061904Y-102202438D02*
X84109523Y-102250057D01*
X84109523Y-102250057D02*
X84157142Y-102345295D01*
X84157142Y-102345295D02*
X84157142Y-102488152D01*
X84157142Y-102488152D02*
X84109523Y-102583390D01*
X84109523Y-102583390D02*
X84061904Y-102631009D01*
X84061904Y-102631009D02*
X83966666Y-102678628D01*
X83966666Y-102678628D02*
X83585714Y-102678628D01*
X85109523Y-103154819D02*
X84538095Y-103154819D01*
X84823809Y-103154819D02*
X84823809Y-102154819D01*
X84823809Y-102154819D02*
X84728571Y-102297676D01*
X84728571Y-102297676D02*
X84633333Y-102392914D01*
X84633333Y-102392914D02*
X84538095Y-102440533D01*
X85442857Y-102154819D02*
X86061904Y-102154819D01*
X86061904Y-102154819D02*
X85728571Y-102535771D01*
X85728571Y-102535771D02*
X85871428Y-102535771D01*
X85871428Y-102535771D02*
X85966666Y-102583390D01*
X85966666Y-102583390D02*
X86014285Y-102631009D01*
X86014285Y-102631009D02*
X86061904Y-102726247D01*
X86061904Y-102726247D02*
X86061904Y-102964342D01*
X86061904Y-102964342D02*
X86014285Y-103059580D01*
X86014285Y-103059580D02*
X85966666Y-103107200D01*
X85966666Y-103107200D02*
X85871428Y-103154819D01*
X85871428Y-103154819D02*
X85585714Y-103154819D01*
X85585714Y-103154819D02*
X85490476Y-103107200D01*
X85490476Y-103107200D02*
X85442857Y-103059580D01*
X90583333Y-121754819D02*
X90250000Y-121278628D01*
X90011905Y-121754819D02*
X90011905Y-120754819D01*
X90011905Y-120754819D02*
X90392857Y-120754819D01*
X90392857Y-120754819D02*
X90488095Y-120802438D01*
X90488095Y-120802438D02*
X90535714Y-120850057D01*
X90535714Y-120850057D02*
X90583333Y-120945295D01*
X90583333Y-120945295D02*
X90583333Y-121088152D01*
X90583333Y-121088152D02*
X90535714Y-121183390D01*
X90535714Y-121183390D02*
X90488095Y-121231009D01*
X90488095Y-121231009D02*
X90392857Y-121278628D01*
X90392857Y-121278628D02*
X90011905Y-121278628D01*
X90916667Y-120754819D02*
X91535714Y-120754819D01*
X91535714Y-120754819D02*
X91202381Y-121135771D01*
X91202381Y-121135771D02*
X91345238Y-121135771D01*
X91345238Y-121135771D02*
X91440476Y-121183390D01*
X91440476Y-121183390D02*
X91488095Y-121231009D01*
X91488095Y-121231009D02*
X91535714Y-121326247D01*
X91535714Y-121326247D02*
X91535714Y-121564342D01*
X91535714Y-121564342D02*
X91488095Y-121659580D01*
X91488095Y-121659580D02*
X91440476Y-121707200D01*
X91440476Y-121707200D02*
X91345238Y-121754819D01*
X91345238Y-121754819D02*
X91059524Y-121754819D01*
X91059524Y-121754819D02*
X90964286Y-121707200D01*
X90964286Y-121707200D02*
X90916667Y-121659580D01*
X100583333Y-123454819D02*
X100250000Y-122978628D01*
X100011905Y-123454819D02*
X100011905Y-122454819D01*
X100011905Y-122454819D02*
X100392857Y-122454819D01*
X100392857Y-122454819D02*
X100488095Y-122502438D01*
X100488095Y-122502438D02*
X100535714Y-122550057D01*
X100535714Y-122550057D02*
X100583333Y-122645295D01*
X100583333Y-122645295D02*
X100583333Y-122788152D01*
X100583333Y-122788152D02*
X100535714Y-122883390D01*
X100535714Y-122883390D02*
X100488095Y-122931009D01*
X100488095Y-122931009D02*
X100392857Y-122978628D01*
X100392857Y-122978628D02*
X100011905Y-122978628D01*
X100964286Y-122550057D02*
X101011905Y-122502438D01*
X101011905Y-122502438D02*
X101107143Y-122454819D01*
X101107143Y-122454819D02*
X101345238Y-122454819D01*
X101345238Y-122454819D02*
X101440476Y-122502438D01*
X101440476Y-122502438D02*
X101488095Y-122550057D01*
X101488095Y-122550057D02*
X101535714Y-122645295D01*
X101535714Y-122645295D02*
X101535714Y-122740533D01*
X101535714Y-122740533D02*
X101488095Y-122883390D01*
X101488095Y-122883390D02*
X100916667Y-123454819D01*
X100916667Y-123454819D02*
X101535714Y-123454819D01*
X106833333Y-132359580D02*
X106785714Y-132407200D01*
X106785714Y-132407200D02*
X106642857Y-132454819D01*
X106642857Y-132454819D02*
X106547619Y-132454819D01*
X106547619Y-132454819D02*
X106404762Y-132407200D01*
X106404762Y-132407200D02*
X106309524Y-132311961D01*
X106309524Y-132311961D02*
X106261905Y-132216723D01*
X106261905Y-132216723D02*
X106214286Y-132026247D01*
X106214286Y-132026247D02*
X106214286Y-131883390D01*
X106214286Y-131883390D02*
X106261905Y-131692914D01*
X106261905Y-131692914D02*
X106309524Y-131597676D01*
X106309524Y-131597676D02*
X106404762Y-131502438D01*
X106404762Y-131502438D02*
X106547619Y-131454819D01*
X106547619Y-131454819D02*
X106642857Y-131454819D01*
X106642857Y-131454819D02*
X106785714Y-131502438D01*
X106785714Y-131502438D02*
X106833333Y-131550057D01*
X107166667Y-131454819D02*
X107785714Y-131454819D01*
X107785714Y-131454819D02*
X107452381Y-131835771D01*
X107452381Y-131835771D02*
X107595238Y-131835771D01*
X107595238Y-131835771D02*
X107690476Y-131883390D01*
X107690476Y-131883390D02*
X107738095Y-131931009D01*
X107738095Y-131931009D02*
X107785714Y-132026247D01*
X107785714Y-132026247D02*
X107785714Y-132264342D01*
X107785714Y-132264342D02*
X107738095Y-132359580D01*
X107738095Y-132359580D02*
X107690476Y-132407200D01*
X107690476Y-132407200D02*
X107595238Y-132454819D01*
X107595238Y-132454819D02*
X107309524Y-132454819D01*
X107309524Y-132454819D02*
X107214286Y-132407200D01*
X107214286Y-132407200D02*
X107166667Y-132359580D01*
X114682142Y-103154819D02*
X114348809Y-102678628D01*
X114110714Y-103154819D02*
X114110714Y-102154819D01*
X114110714Y-102154819D02*
X114491666Y-102154819D01*
X114491666Y-102154819D02*
X114586904Y-102202438D01*
X114586904Y-102202438D02*
X114634523Y-102250057D01*
X114634523Y-102250057D02*
X114682142Y-102345295D01*
X114682142Y-102345295D02*
X114682142Y-102488152D01*
X114682142Y-102488152D02*
X114634523Y-102583390D01*
X114634523Y-102583390D02*
X114586904Y-102631009D01*
X114586904Y-102631009D02*
X114491666Y-102678628D01*
X114491666Y-102678628D02*
X114110714Y-102678628D01*
X115253571Y-102583390D02*
X115158333Y-102535771D01*
X115158333Y-102535771D02*
X115110714Y-102488152D01*
X115110714Y-102488152D02*
X115063095Y-102392914D01*
X115063095Y-102392914D02*
X115063095Y-102345295D01*
X115063095Y-102345295D02*
X115110714Y-102250057D01*
X115110714Y-102250057D02*
X115158333Y-102202438D01*
X115158333Y-102202438D02*
X115253571Y-102154819D01*
X115253571Y-102154819D02*
X115444047Y-102154819D01*
X115444047Y-102154819D02*
X115539285Y-102202438D01*
X115539285Y-102202438D02*
X115586904Y-102250057D01*
X115586904Y-102250057D02*
X115634523Y-102345295D01*
X115634523Y-102345295D02*
X115634523Y-102392914D01*
X115634523Y-102392914D02*
X115586904Y-102488152D01*
X115586904Y-102488152D02*
X115539285Y-102535771D01*
X115539285Y-102535771D02*
X115444047Y-102583390D01*
X115444047Y-102583390D02*
X115253571Y-102583390D01*
X115253571Y-102583390D02*
X115158333Y-102631009D01*
X115158333Y-102631009D02*
X115110714Y-102678628D01*
X115110714Y-102678628D02*
X115063095Y-102773866D01*
X115063095Y-102773866D02*
X115063095Y-102964342D01*
X115063095Y-102964342D02*
X115110714Y-103059580D01*
X115110714Y-103059580D02*
X115158333Y-103107200D01*
X115158333Y-103107200D02*
X115253571Y-103154819D01*
X115253571Y-103154819D02*
X115444047Y-103154819D01*
X115444047Y-103154819D02*
X115539285Y-103107200D01*
X115539285Y-103107200D02*
X115586904Y-103059580D01*
X115586904Y-103059580D02*
X115634523Y-102964342D01*
X115634523Y-102964342D02*
X115634523Y-102773866D01*
X115634523Y-102773866D02*
X115586904Y-102678628D01*
X115586904Y-102678628D02*
X115539285Y-102631009D01*
X115539285Y-102631009D02*
X115444047Y-102583390D01*
X84157142Y-100554819D02*
X83823809Y-100078628D01*
X83585714Y-100554819D02*
X83585714Y-99554819D01*
X83585714Y-99554819D02*
X83966666Y-99554819D01*
X83966666Y-99554819D02*
X84061904Y-99602438D01*
X84061904Y-99602438D02*
X84109523Y-99650057D01*
X84109523Y-99650057D02*
X84157142Y-99745295D01*
X84157142Y-99745295D02*
X84157142Y-99888152D01*
X84157142Y-99888152D02*
X84109523Y-99983390D01*
X84109523Y-99983390D02*
X84061904Y-100031009D01*
X84061904Y-100031009D02*
X83966666Y-100078628D01*
X83966666Y-100078628D02*
X83585714Y-100078628D01*
X85109523Y-100554819D02*
X84538095Y-100554819D01*
X84823809Y-100554819D02*
X84823809Y-99554819D01*
X84823809Y-99554819D02*
X84728571Y-99697676D01*
X84728571Y-99697676D02*
X84633333Y-99792914D01*
X84633333Y-99792914D02*
X84538095Y-99840533D01*
X85490476Y-99650057D02*
X85538095Y-99602438D01*
X85538095Y-99602438D02*
X85633333Y-99554819D01*
X85633333Y-99554819D02*
X85871428Y-99554819D01*
X85871428Y-99554819D02*
X85966666Y-99602438D01*
X85966666Y-99602438D02*
X86014285Y-99650057D01*
X86014285Y-99650057D02*
X86061904Y-99745295D01*
X86061904Y-99745295D02*
X86061904Y-99840533D01*
X86061904Y-99840533D02*
X86014285Y-99983390D01*
X86014285Y-99983390D02*
X85442857Y-100554819D01*
X85442857Y-100554819D02*
X86061904Y-100554819D01*
X100583333Y-124954819D02*
X100250000Y-124478628D01*
X100011905Y-124954819D02*
X100011905Y-123954819D01*
X100011905Y-123954819D02*
X100392857Y-123954819D01*
X100392857Y-123954819D02*
X100488095Y-124002438D01*
X100488095Y-124002438D02*
X100535714Y-124050057D01*
X100535714Y-124050057D02*
X100583333Y-124145295D01*
X100583333Y-124145295D02*
X100583333Y-124288152D01*
X100583333Y-124288152D02*
X100535714Y-124383390D01*
X100535714Y-124383390D02*
X100488095Y-124431009D01*
X100488095Y-124431009D02*
X100392857Y-124478628D01*
X100392857Y-124478628D02*
X100011905Y-124478628D01*
X101535714Y-124954819D02*
X100964286Y-124954819D01*
X101250000Y-124954819D02*
X101250000Y-123954819D01*
X101250000Y-123954819D02*
X101154762Y-124097676D01*
X101154762Y-124097676D02*
X101059524Y-124192914D01*
X101059524Y-124192914D02*
X100964286Y-124240533D01*
X85033333Y-95354819D02*
X84700000Y-94878628D01*
X84461905Y-95354819D02*
X84461905Y-94354819D01*
X84461905Y-94354819D02*
X84842857Y-94354819D01*
X84842857Y-94354819D02*
X84938095Y-94402438D01*
X84938095Y-94402438D02*
X84985714Y-94450057D01*
X84985714Y-94450057D02*
X85033333Y-94545295D01*
X85033333Y-94545295D02*
X85033333Y-94688152D01*
X85033333Y-94688152D02*
X84985714Y-94783390D01*
X84985714Y-94783390D02*
X84938095Y-94831009D01*
X84938095Y-94831009D02*
X84842857Y-94878628D01*
X84842857Y-94878628D02*
X84461905Y-94878628D01*
X85366667Y-94354819D02*
X86033333Y-94354819D01*
X86033333Y-94354819D02*
X85604762Y-95354819D01*
X114338095Y-131354819D02*
X114338095Y-132164342D01*
X114338095Y-132164342D02*
X114385714Y-132259580D01*
X114385714Y-132259580D02*
X114433333Y-132307200D01*
X114433333Y-132307200D02*
X114528571Y-132354819D01*
X114528571Y-132354819D02*
X114719047Y-132354819D01*
X114719047Y-132354819D02*
X114814285Y-132307200D01*
X114814285Y-132307200D02*
X114861904Y-132259580D01*
X114861904Y-132259580D02*
X114909523Y-132164342D01*
X114909523Y-132164342D02*
X114909523Y-131354819D01*
X115338095Y-131450057D02*
X115385714Y-131402438D01*
X115385714Y-131402438D02*
X115480952Y-131354819D01*
X115480952Y-131354819D02*
X115719047Y-131354819D01*
X115719047Y-131354819D02*
X115814285Y-131402438D01*
X115814285Y-131402438D02*
X115861904Y-131450057D01*
X115861904Y-131450057D02*
X115909523Y-131545295D01*
X115909523Y-131545295D02*
X115909523Y-131640533D01*
X115909523Y-131640533D02*
X115861904Y-131783390D01*
X115861904Y-131783390D02*
X115290476Y-132354819D01*
X115290476Y-132354819D02*
X115909523Y-132354819D01*
X84157142Y-108254819D02*
X83823809Y-107778628D01*
X83585714Y-108254819D02*
X83585714Y-107254819D01*
X83585714Y-107254819D02*
X83966666Y-107254819D01*
X83966666Y-107254819D02*
X84061904Y-107302438D01*
X84061904Y-107302438D02*
X84109523Y-107350057D01*
X84109523Y-107350057D02*
X84157142Y-107445295D01*
X84157142Y-107445295D02*
X84157142Y-107588152D01*
X84157142Y-107588152D02*
X84109523Y-107683390D01*
X84109523Y-107683390D02*
X84061904Y-107731009D01*
X84061904Y-107731009D02*
X83966666Y-107778628D01*
X83966666Y-107778628D02*
X83585714Y-107778628D01*
X85109523Y-108254819D02*
X84538095Y-108254819D01*
X84823809Y-108254819D02*
X84823809Y-107254819D01*
X84823809Y-107254819D02*
X84728571Y-107397676D01*
X84728571Y-107397676D02*
X84633333Y-107492914D01*
X84633333Y-107492914D02*
X84538095Y-107540533D01*
X86014285Y-107254819D02*
X85538095Y-107254819D01*
X85538095Y-107254819D02*
X85490476Y-107731009D01*
X85490476Y-107731009D02*
X85538095Y-107683390D01*
X85538095Y-107683390D02*
X85633333Y-107635771D01*
X85633333Y-107635771D02*
X85871428Y-107635771D01*
X85871428Y-107635771D02*
X85966666Y-107683390D01*
X85966666Y-107683390D02*
X86014285Y-107731009D01*
X86014285Y-107731009D02*
X86061904Y-107826247D01*
X86061904Y-107826247D02*
X86061904Y-108064342D01*
X86061904Y-108064342D02*
X86014285Y-108159580D01*
X86014285Y-108159580D02*
X85966666Y-108207200D01*
X85966666Y-108207200D02*
X85871428Y-108254819D01*
X85871428Y-108254819D02*
X85633333Y-108254819D01*
X85633333Y-108254819D02*
X85538095Y-108207200D01*
X85538095Y-108207200D02*
X85490476Y-108159580D01*
X114632142Y-98013347D02*
X114298809Y-97537156D01*
X114060714Y-98013347D02*
X114060714Y-97013347D01*
X114060714Y-97013347D02*
X114441666Y-97013347D01*
X114441666Y-97013347D02*
X114536904Y-97060966D01*
X114536904Y-97060966D02*
X114584523Y-97108585D01*
X114584523Y-97108585D02*
X114632142Y-97203823D01*
X114632142Y-97203823D02*
X114632142Y-97346680D01*
X114632142Y-97346680D02*
X114584523Y-97441918D01*
X114584523Y-97441918D02*
X114536904Y-97489537D01*
X114536904Y-97489537D02*
X114441666Y-97537156D01*
X114441666Y-97537156D02*
X114060714Y-97537156D01*
X115584523Y-98013347D02*
X115013095Y-98013347D01*
X115298809Y-98013347D02*
X115298809Y-97013347D01*
X115298809Y-97013347D02*
X115203571Y-97156204D01*
X115203571Y-97156204D02*
X115108333Y-97251442D01*
X115108333Y-97251442D02*
X115013095Y-97299061D01*
X116203571Y-97013347D02*
X116298809Y-97013347D01*
X116298809Y-97013347D02*
X116394047Y-97060966D01*
X116394047Y-97060966D02*
X116441666Y-97108585D01*
X116441666Y-97108585D02*
X116489285Y-97203823D01*
X116489285Y-97203823D02*
X116536904Y-97394299D01*
X116536904Y-97394299D02*
X116536904Y-97632394D01*
X116536904Y-97632394D02*
X116489285Y-97822870D01*
X116489285Y-97822870D02*
X116441666Y-97918108D01*
X116441666Y-97918108D02*
X116394047Y-97965728D01*
X116394047Y-97965728D02*
X116298809Y-98013347D01*
X116298809Y-98013347D02*
X116203571Y-98013347D01*
X116203571Y-98013347D02*
X116108333Y-97965728D01*
X116108333Y-97965728D02*
X116060714Y-97918108D01*
X116060714Y-97918108D02*
X116013095Y-97822870D01*
X116013095Y-97822870D02*
X115965476Y-97632394D01*
X115965476Y-97632394D02*
X115965476Y-97394299D01*
X115965476Y-97394299D02*
X116013095Y-97203823D01*
X116013095Y-97203823D02*
X116060714Y-97108585D01*
X116060714Y-97108585D02*
X116108333Y-97060966D01*
X116108333Y-97060966D02*
X116203571Y-97013347D01*
X114632142Y-95473347D02*
X114298809Y-94997156D01*
X114060714Y-95473347D02*
X114060714Y-94473347D01*
X114060714Y-94473347D02*
X114441666Y-94473347D01*
X114441666Y-94473347D02*
X114536904Y-94520966D01*
X114536904Y-94520966D02*
X114584523Y-94568585D01*
X114584523Y-94568585D02*
X114632142Y-94663823D01*
X114632142Y-94663823D02*
X114632142Y-94806680D01*
X114632142Y-94806680D02*
X114584523Y-94901918D01*
X114584523Y-94901918D02*
X114536904Y-94949537D01*
X114536904Y-94949537D02*
X114441666Y-94997156D01*
X114441666Y-94997156D02*
X114060714Y-94997156D01*
X115584523Y-95473347D02*
X115013095Y-95473347D01*
X115298809Y-95473347D02*
X115298809Y-94473347D01*
X115298809Y-94473347D02*
X115203571Y-94616204D01*
X115203571Y-94616204D02*
X115108333Y-94711442D01*
X115108333Y-94711442D02*
X115013095Y-94759061D01*
X116536904Y-95473347D02*
X115965476Y-95473347D01*
X116251190Y-95473347D02*
X116251190Y-94473347D01*
X116251190Y-94473347D02*
X116155952Y-94616204D01*
X116155952Y-94616204D02*
X116060714Y-94711442D01*
X116060714Y-94711442D02*
X115965476Y-94759061D01*
X85008333Y-98054819D02*
X84675000Y-97578628D01*
X84436905Y-98054819D02*
X84436905Y-97054819D01*
X84436905Y-97054819D02*
X84817857Y-97054819D01*
X84817857Y-97054819D02*
X84913095Y-97102438D01*
X84913095Y-97102438D02*
X84960714Y-97150057D01*
X84960714Y-97150057D02*
X85008333Y-97245295D01*
X85008333Y-97245295D02*
X85008333Y-97388152D01*
X85008333Y-97388152D02*
X84960714Y-97483390D01*
X84960714Y-97483390D02*
X84913095Y-97531009D01*
X84913095Y-97531009D02*
X84817857Y-97578628D01*
X84817857Y-97578628D02*
X84436905Y-97578628D01*
X85865476Y-97054819D02*
X85675000Y-97054819D01*
X85675000Y-97054819D02*
X85579762Y-97102438D01*
X85579762Y-97102438D02*
X85532143Y-97150057D01*
X85532143Y-97150057D02*
X85436905Y-97292914D01*
X85436905Y-97292914D02*
X85389286Y-97483390D01*
X85389286Y-97483390D02*
X85389286Y-97864342D01*
X85389286Y-97864342D02*
X85436905Y-97959580D01*
X85436905Y-97959580D02*
X85484524Y-98007200D01*
X85484524Y-98007200D02*
X85579762Y-98054819D01*
X85579762Y-98054819D02*
X85770238Y-98054819D01*
X85770238Y-98054819D02*
X85865476Y-98007200D01*
X85865476Y-98007200D02*
X85913095Y-97959580D01*
X85913095Y-97959580D02*
X85960714Y-97864342D01*
X85960714Y-97864342D02*
X85960714Y-97626247D01*
X85960714Y-97626247D02*
X85913095Y-97531009D01*
X85913095Y-97531009D02*
X85865476Y-97483390D01*
X85865476Y-97483390D02*
X85770238Y-97435771D01*
X85770238Y-97435771D02*
X85579762Y-97435771D01*
X85579762Y-97435771D02*
X85484524Y-97483390D01*
X85484524Y-97483390D02*
X85436905Y-97531009D01*
X85436905Y-97531009D02*
X85389286Y-97626247D01*
X84132142Y-105654819D02*
X83798809Y-105178628D01*
X83560714Y-105654819D02*
X83560714Y-104654819D01*
X83560714Y-104654819D02*
X83941666Y-104654819D01*
X83941666Y-104654819D02*
X84036904Y-104702438D01*
X84036904Y-104702438D02*
X84084523Y-104750057D01*
X84084523Y-104750057D02*
X84132142Y-104845295D01*
X84132142Y-104845295D02*
X84132142Y-104988152D01*
X84132142Y-104988152D02*
X84084523Y-105083390D01*
X84084523Y-105083390D02*
X84036904Y-105131009D01*
X84036904Y-105131009D02*
X83941666Y-105178628D01*
X83941666Y-105178628D02*
X83560714Y-105178628D01*
X85084523Y-105654819D02*
X84513095Y-105654819D01*
X84798809Y-105654819D02*
X84798809Y-104654819D01*
X84798809Y-104654819D02*
X84703571Y-104797676D01*
X84703571Y-104797676D02*
X84608333Y-104892914D01*
X84608333Y-104892914D02*
X84513095Y-104940533D01*
X85941666Y-104988152D02*
X85941666Y-105654819D01*
X85703571Y-104607200D02*
X85465476Y-105321485D01*
X85465476Y-105321485D02*
X86084523Y-105321485D01*
X100583333Y-121659580D02*
X100535714Y-121707200D01*
X100535714Y-121707200D02*
X100392857Y-121754819D01*
X100392857Y-121754819D02*
X100297619Y-121754819D01*
X100297619Y-121754819D02*
X100154762Y-121707200D01*
X100154762Y-121707200D02*
X100059524Y-121611961D01*
X100059524Y-121611961D02*
X100011905Y-121516723D01*
X100011905Y-121516723D02*
X99964286Y-121326247D01*
X99964286Y-121326247D02*
X99964286Y-121183390D01*
X99964286Y-121183390D02*
X100011905Y-120992914D01*
X100011905Y-120992914D02*
X100059524Y-120897676D01*
X100059524Y-120897676D02*
X100154762Y-120802438D01*
X100154762Y-120802438D02*
X100297619Y-120754819D01*
X100297619Y-120754819D02*
X100392857Y-120754819D01*
X100392857Y-120754819D02*
X100535714Y-120802438D01*
X100535714Y-120802438D02*
X100583333Y-120850057D01*
X101535714Y-121754819D02*
X100964286Y-121754819D01*
X101250000Y-121754819D02*
X101250000Y-120754819D01*
X101250000Y-120754819D02*
X101154762Y-120897676D01*
X101154762Y-120897676D02*
X101059524Y-120992914D01*
X101059524Y-120992914D02*
X100964286Y-121040533D01*
%TO.C,SW1*%
D11*
X110029999Y-84305000D02*
X110029999Y-87755000D01*
X110029999Y-90595000D02*
X110029999Y-90795000D01*
X110819999Y-90795000D02*
X110029999Y-90795000D01*
X110819999Y-90795000D02*
X110819999Y-90545000D01*
X111409999Y-88245000D02*
X116189999Y-88245000D01*
X116779999Y-90795000D02*
X116779999Y-90545000D01*
X117569999Y-84305000D02*
X110029999Y-84305000D01*
X117569999Y-87755000D02*
X117569999Y-84305000D01*
X117569999Y-90595000D02*
X117569999Y-90795000D01*
X117569999Y-90795000D02*
X116779999Y-90795000D01*
%TO.C,R9*%
X88837258Y-84477500D02*
X88362742Y-84477500D01*
X88837258Y-85522500D02*
X88362742Y-85522500D01*
%TO.C,J1*%
X89150000Y-125550000D02*
X94850000Y-125550000D01*
X89150000Y-127650000D02*
X89150000Y-125550000D01*
X89150000Y-139550000D02*
X89150000Y-137450000D01*
X89150000Y-139550000D02*
X94850000Y-139550000D01*
X94850000Y-127650000D02*
X94850000Y-125550000D01*
X94850000Y-139550000D02*
X94850000Y-137450000D01*
D12*
X88700000Y-137450000D02*
X88700000Y-137150000D01*
X88950000Y-137300000D01*
X88700000Y-137450000D01*
G36*
X88950000Y-137300000D02*
G01*
X88700000Y-137450000D01*
X88700000Y-137150000D01*
X88950000Y-137300000D01*
G37*
%TO.C,U1*%
D11*
X108090000Y-132865000D02*
X112710000Y-132865000D01*
X112710000Y-138335000D02*
X108090000Y-138335000D01*
X114260000Y-137880000D02*
X114590000Y-137640000D01*
X114590000Y-138120001D01*
X114260000Y-137880000D01*
G36*
X114590000Y-138120001D02*
G01*
X114260000Y-137880000D01*
X114590000Y-137640000D01*
X114590000Y-138120001D01*
G37*
%TO.C,R4*%
X88837258Y-86877500D02*
X88362742Y-86877500D01*
X88837258Y-87922500D02*
X88362742Y-87922500D01*
%TO.C,C2*%
X109484420Y-138890000D02*
X109765580Y-138890000D01*
X109484420Y-139910000D02*
X109765580Y-139910000D01*
%TO.C,R5*%
X111162742Y-99618972D02*
X111637258Y-99618972D01*
X111162742Y-100663972D02*
X111637258Y-100663972D01*
%TO.C,R13*%
X88362742Y-102177500D02*
X88837258Y-102177500D01*
X88362742Y-103222500D02*
X88837258Y-103222500D01*
%TO.C,R3*%
X94012258Y-120877500D02*
X93537742Y-120877500D01*
X94012258Y-121922500D02*
X93537742Y-121922500D01*
%TO.C,R2*%
X98037258Y-122477500D02*
X97562742Y-122477500D01*
X98037258Y-123522500D02*
X97562742Y-123522500D01*
%TO.C,C3*%
X109459420Y-131490000D02*
X109740580Y-131490000D01*
X109459420Y-132510000D02*
X109740580Y-132510000D01*
%TO.C,R8*%
X111162742Y-102177500D02*
X111637258Y-102177500D01*
X111162742Y-103222500D02*
X111637258Y-103222500D01*
%TO.C,R12*%
X88837258Y-99677500D02*
X88362742Y-99677500D01*
X88837258Y-100722500D02*
X88362742Y-100722500D01*
%TO.C,R1*%
X98037258Y-124077500D02*
X97562742Y-124077500D01*
X98037258Y-125122500D02*
X97562742Y-125122500D01*
%TO.C,R7*%
X88837258Y-94477500D02*
X88362742Y-94477500D01*
X88837258Y-95522500D02*
X88362742Y-95522500D01*
%TO.C,U2*%
X107952500Y-125665000D02*
X112572500Y-125665000D01*
X112572500Y-131135000D02*
X107952500Y-131135000D01*
X114122500Y-130680000D02*
X114452500Y-130440000D01*
X114452500Y-130920001D01*
X114122500Y-130680000D01*
G36*
X114452500Y-130920001D02*
G01*
X114122500Y-130680000D01*
X114452500Y-130440000D01*
X114452500Y-130920001D01*
G37*
%TO.C,R15*%
X88337742Y-107277500D02*
X88812258Y-107277500D01*
X88337742Y-108322500D02*
X88812258Y-108322500D01*
%TO.C,R10*%
X111162742Y-97077500D02*
X111637258Y-97077500D01*
X111162742Y-98122500D02*
X111637258Y-98122500D01*
%TO.C,R11*%
X111162742Y-94477500D02*
X111637258Y-94477500D01*
X111162742Y-95522500D02*
X111637258Y-95522500D01*
%TO.C,R6*%
X88837258Y-96977500D02*
X88362742Y-96977500D01*
X88837258Y-98022500D02*
X88362742Y-98022500D01*
%TO.C,R14*%
X88337742Y-104677500D02*
X88812258Y-104677500D01*
X88337742Y-105722500D02*
X88812258Y-105722500D01*
%TO.C,C1*%
X97965581Y-120890000D02*
X97684419Y-120890000D01*
X97965581Y-121910000D02*
X97684419Y-121910000D01*
%TD*%
M02*
