%TF.GenerationSoftware,KiCad,Pcbnew,10.0.4+b1*%
%TF.CreationDate,2026-07-15T16:48:26+10:00*%
%TF.ProjectId,TP_AVR,54505f41-5652-42e6-9b69-6361645f7063,A*%
%TF.SameCoordinates,Original*%
%TF.FileFunction,Legend,Bot*%
%TF.FilePolarity,Positive*%
%FSLAX46Y46*%
G04 Gerber Fmt 4.6, Leading zero omitted, Abs format (unit mm)*
G04 Created by KiCad (PCBNEW 10.0.4+b1) date 2026-07-15 16:48:26*
%MOMM*%
%LPD*%
G01*
G04 APERTURE LIST*
%ADD10C,0.150000*%
%ADD11C,0.120000*%
G04 APERTURE END LIST*
D10*
X103583333Y-133054819D02*
X103583333Y-133769104D01*
X103583333Y-133769104D02*
X103630952Y-133911961D01*
X103630952Y-133911961D02*
X103726190Y-134007200D01*
X103726190Y-134007200D02*
X103869047Y-134054819D01*
X103869047Y-134054819D02*
X103964285Y-134054819D01*
X103107142Y-134054819D02*
X103107142Y-133054819D01*
X103107142Y-133054819D02*
X102726190Y-133054819D01*
X102726190Y-133054819D02*
X102630952Y-133102438D01*
X102630952Y-133102438D02*
X102583333Y-133150057D01*
X102583333Y-133150057D02*
X102535714Y-133245295D01*
X102535714Y-133245295D02*
X102535714Y-133388152D01*
X102535714Y-133388152D02*
X102583333Y-133483390D01*
X102583333Y-133483390D02*
X102630952Y-133531009D01*
X102630952Y-133531009D02*
X102726190Y-133578628D01*
X102726190Y-133578628D02*
X103107142Y-133578628D01*
X102154761Y-133150057D02*
X102107142Y-133102438D01*
X102107142Y-133102438D02*
X102011904Y-133054819D01*
X102011904Y-133054819D02*
X101773809Y-133054819D01*
X101773809Y-133054819D02*
X101678571Y-133102438D01*
X101678571Y-133102438D02*
X101630952Y-133150057D01*
X101630952Y-133150057D02*
X101583333Y-133245295D01*
X101583333Y-133245295D02*
X101583333Y-133340533D01*
X101583333Y-133340533D02*
X101630952Y-133483390D01*
X101630952Y-133483390D02*
X102202380Y-134054819D01*
X102202380Y-134054819D02*
X101583333Y-134054819D01*
X86333333Y-135954819D02*
X86333333Y-136669104D01*
X86333333Y-136669104D02*
X86380952Y-136811961D01*
X86380952Y-136811961D02*
X86476190Y-136907200D01*
X86476190Y-136907200D02*
X86619047Y-136954819D01*
X86619047Y-136954819D02*
X86714285Y-136954819D01*
X85857142Y-136954819D02*
X85857142Y-135954819D01*
X85857142Y-135954819D02*
X85476190Y-135954819D01*
X85476190Y-135954819D02*
X85380952Y-136002438D01*
X85380952Y-136002438D02*
X85333333Y-136050057D01*
X85333333Y-136050057D02*
X85285714Y-136145295D01*
X85285714Y-136145295D02*
X85285714Y-136288152D01*
X85285714Y-136288152D02*
X85333333Y-136383390D01*
X85333333Y-136383390D02*
X85380952Y-136431009D01*
X85380952Y-136431009D02*
X85476190Y-136478628D01*
X85476190Y-136478628D02*
X85857142Y-136478628D01*
X84428571Y-136288152D02*
X84428571Y-136954819D01*
X84666666Y-135907200D02*
X84904761Y-136621485D01*
X84904761Y-136621485D02*
X84285714Y-136621485D01*
X104733333Y-125554819D02*
X104733333Y-126269104D01*
X104733333Y-126269104D02*
X104780952Y-126411961D01*
X104780952Y-126411961D02*
X104876190Y-126507200D01*
X104876190Y-126507200D02*
X105019047Y-126554819D01*
X105019047Y-126554819D02*
X105114285Y-126554819D01*
X104257142Y-126554819D02*
X104257142Y-125554819D01*
X104257142Y-125554819D02*
X103876190Y-125554819D01*
X103876190Y-125554819D02*
X103780952Y-125602438D01*
X103780952Y-125602438D02*
X103733333Y-125650057D01*
X103733333Y-125650057D02*
X103685714Y-125745295D01*
X103685714Y-125745295D02*
X103685714Y-125888152D01*
X103685714Y-125888152D02*
X103733333Y-125983390D01*
X103733333Y-125983390D02*
X103780952Y-126031009D01*
X103780952Y-126031009D02*
X103876190Y-126078628D01*
X103876190Y-126078628D02*
X104257142Y-126078628D01*
X102733333Y-126554819D02*
X103304761Y-126554819D01*
X103019047Y-126554819D02*
X103019047Y-125554819D01*
X103019047Y-125554819D02*
X103114285Y-125697676D01*
X103114285Y-125697676D02*
X103209523Y-125792914D01*
X103209523Y-125792914D02*
X103304761Y-125840533D01*
X87183333Y-131954819D02*
X87183333Y-132669104D01*
X87183333Y-132669104D02*
X87230952Y-132811961D01*
X87230952Y-132811961D02*
X87326190Y-132907200D01*
X87326190Y-132907200D02*
X87469047Y-132954819D01*
X87469047Y-132954819D02*
X87564285Y-132954819D01*
X86707142Y-132954819D02*
X86707142Y-131954819D01*
X86707142Y-131954819D02*
X86326190Y-131954819D01*
X86326190Y-131954819D02*
X86230952Y-132002438D01*
X86230952Y-132002438D02*
X86183333Y-132050057D01*
X86183333Y-132050057D02*
X86135714Y-132145295D01*
X86135714Y-132145295D02*
X86135714Y-132288152D01*
X86135714Y-132288152D02*
X86183333Y-132383390D01*
X86183333Y-132383390D02*
X86230952Y-132431009D01*
X86230952Y-132431009D02*
X86326190Y-132478628D01*
X86326190Y-132478628D02*
X86707142Y-132478628D01*
X85802380Y-131954819D02*
X85183333Y-131954819D01*
X85183333Y-131954819D02*
X85516666Y-132335771D01*
X85516666Y-132335771D02*
X85373809Y-132335771D01*
X85373809Y-132335771D02*
X85278571Y-132383390D01*
X85278571Y-132383390D02*
X85230952Y-132431009D01*
X85230952Y-132431009D02*
X85183333Y-132526247D01*
X85183333Y-132526247D02*
X85183333Y-132764342D01*
X85183333Y-132764342D02*
X85230952Y-132859580D01*
X85230952Y-132859580D02*
X85278571Y-132907200D01*
X85278571Y-132907200D02*
X85373809Y-132954819D01*
X85373809Y-132954819D02*
X85659523Y-132954819D01*
X85659523Y-132954819D02*
X85754761Y-132907200D01*
X85754761Y-132907200D02*
X85802380Y-132859580D01*
%TO.C,JP2*%
D11*
X101350000Y-130400000D02*
X101350000Y-132400000D01*
X101350000Y-132400000D02*
X104150000Y-132400000D01*
X104150000Y-130400000D02*
X101350000Y-130400000D01*
X104150000Y-132400000D02*
X104150000Y-130400000D01*
%TO.C,JP4*%
X84100000Y-137300000D02*
X84100000Y-139300000D01*
X84100000Y-139300000D02*
X86900000Y-139300000D01*
X86900000Y-137300000D02*
X84100000Y-137300000D01*
X86900000Y-139300000D02*
X86900000Y-137300000D01*
%TO.C,JP1*%
X101950000Y-127200000D02*
X101950000Y-129200000D01*
X101950000Y-129200000D02*
X104750000Y-129200000D01*
X104750000Y-127200000D02*
X101950000Y-127200000D01*
X104750000Y-129200000D02*
X104750000Y-127200000D01*
%TO.C,JP3*%
X84950000Y-133300000D02*
X84950000Y-135300000D01*
X84950000Y-135300000D02*
X87750000Y-135300000D01*
X87750000Y-133300000D02*
X84950000Y-133300000D01*
X87750000Y-135300000D02*
X87750000Y-133300000D01*
%TD*%
M02*
