%TF.GenerationSoftware,KiCad,Pcbnew,10.0.4+b1*%
%TF.CreationDate,2026-07-15T16:48:24+10:00*%
%TF.ProjectId,TP_AVR,54505f41-5652-42e6-9b69-6361645f7063,A*%
%TF.SameCoordinates,Original*%
%TF.FileFunction,Copper,L1,Top*%
%TF.FilePolarity,Positive*%
%FSLAX46Y46*%
G04 Gerber Fmt 4.6, Leading zero omitted, Abs format (unit mm)*
G04 Created by KiCad (PCBNEW 10.0.4+b1) date 2026-07-15 16:48:24*
%MOMM*%
%LPD*%
G01*
G04 APERTURE LIST*
G04 Aperture macros list*
%AMRoundRect*
0 Rectangle with rounded corners*
0 $1 Rounding radius*
0 $2 $3 $4 $5 $6 $7 $8 $9 X,Y pos of 4 corners*
0 Add a 4 corners polygon primitive as box body*
4,1,4,$2,$3,$4,$5,$6,$7,$8,$9,$2,$3,0*
0 Add four circle primitives for the rounded corners*
1,1,$1+$1,$2,$3*
1,1,$1+$1,$4,$5*
1,1,$1+$1,$6,$7*
1,1,$1+$1,$8,$9*
0 Add four rect primitives between the rounded corners*
20,1,$1+$1,$2,$3,$4,$5,0*
20,1,$1+$1,$4,$5,$6,$7,0*
20,1,$1+$1,$6,$7,$8,$9,0*
20,1,$1+$1,$8,$9,$2,$3,0*%
G04 Aperture macros list end*
%TA.AperFunction,ComponentPad*%
%ADD10C,2.400000*%
%TD*%
%TA.AperFunction,ComponentPad*%
%ADD11C,1.700000*%
%TD*%
%TA.AperFunction,SMDPad,CuDef*%
%ADD12RoundRect,0.200000X0.200000X0.275000X-0.200000X0.275000X-0.200000X-0.275000X0.200000X-0.275000X0*%
%TD*%
%TA.AperFunction,ComponentPad*%
%ADD13C,1.600000*%
%TD*%
%TA.AperFunction,SMDPad,CuDef*%
%ADD14RoundRect,0.050000X0.450000X-0.050000X0.450000X0.050000X-0.450000X0.050000X-0.450000X-0.050000X0*%
%TD*%
%TA.AperFunction,SMDPad,CuDef*%
%ADD15RoundRect,0.150000X0.350000X-0.625000X0.350000X0.625000X-0.350000X0.625000X-0.350000X-0.625000X0*%
%TD*%
%TA.AperFunction,SMDPad,CuDef*%
%ADD16RoundRect,0.100000X0.637500X0.100000X-0.637500X0.100000X-0.637500X-0.100000X0.637500X-0.100000X0*%
%TD*%
%TA.AperFunction,SMDPad,CuDef*%
%ADD17RoundRect,0.225000X-0.225000X-0.250000X0.225000X-0.250000X0.225000X0.250000X-0.225000X0.250000X0*%
%TD*%
%TA.AperFunction,SMDPad,CuDef*%
%ADD18RoundRect,0.200000X-0.200000X-0.275000X0.200000X-0.275000X0.200000X0.275000X-0.200000X0.275000X0*%
%TD*%
%TA.AperFunction,SMDPad,CuDef*%
%ADD19RoundRect,0.225000X0.225000X0.250000X-0.225000X0.250000X-0.225000X-0.250000X0.225000X-0.250000X0*%
%TD*%
%TA.AperFunction,ViaPad*%
%ADD20C,0.450000*%
%TD*%
%TA.AperFunction,Conductor*%
%ADD21C,0.200000*%
%TD*%
%TA.AperFunction,Conductor*%
%ADD22C,0.150000*%
%TD*%
%TA.AperFunction,Conductor*%
%ADD23C,0.250000*%
%TD*%
%TA.AperFunction,Conductor*%
%ADD24C,0.500000*%
%TD*%
%TA.AperFunction,Conductor*%
%ADD25C,0.127000*%
%TD*%
G04 APERTURE END LIST*
D10*
%TO.P,SW1,*%
%TO.N,*%
X110299999Y-89175000D03*
X117299999Y-89175000D03*
D11*
%TO.P,SW1,1,A_1*%
%TO.N,Net-(M1-RST)*%
X111549999Y-86675000D03*
%TO.P,SW1,2,B_2*%
%TO.N,GND*%
X116049999Y-86675000D03*
%TD*%
D12*
%TO.P,R9,1*%
%TO.N,ROW5*%
X89425000Y-85000000D03*
%TO.P,R9,2*%
%TO.N,GND*%
X87775000Y-85000000D03*
%TD*%
D13*
%TO.P,M1,1,TXO/PD3_1*%
%TO.N,ROW5*%
X91902428Y-84901472D03*
%TO.P,M1,2,RXI/PD2_2*%
%TO.N,ROW0*%
X91902428Y-87441472D03*
%TO.P,M1,3,GND_3*%
%TO.N,GND*%
X91902428Y-89981472D03*
%TO.P,M1,4,GND_4*%
X91902428Y-92521472D03*
%TO.P,M1,5,2/PD1_5*%
%TO.N,ROW3*%
X91902428Y-95061472D03*
%TO.P,M1,6,3/PD0_6*%
%TO.N,ROW2*%
X91902428Y-97601472D03*
%TO.P,M1,7,4/PD4_7*%
%TO.N,LED_CAPS*%
X91902428Y-100141472D03*
%TO.P,M1,8,5/PC6_8*%
%TO.N,LED_SCRL*%
X91902428Y-102681472D03*
%TO.P,M1,9,6/PD7_9*%
%TO.N,LED_NUM*%
X91902428Y-105221472D03*
%TO.P,M1,10,7/PE6_10*%
%TO.N,LED_COMP*%
X91902428Y-107761472D03*
%TO.P,M1,11,8/PB4_11*%
%TO.N,S3*%
X91902428Y-110301472D03*
%TO.P,M1,12,9/PB5_12*%
%TO.N,TP_CLK*%
X91902428Y-112841472D03*
%TO.P,M1,13,10/PB6_13*%
%TO.N,TP_DATA*%
X107142428Y-112841472D03*
%TO.P,M1,14,16/PB2_14*%
%TO.N,S2*%
X107142428Y-110301472D03*
%TO.P,M1,15,14/PB3_15*%
%TO.N,S1*%
X107142428Y-107761472D03*
%TO.P,M1,16,15/PB1_16*%
%TO.N,S0*%
X107142428Y-105221472D03*
%TO.P,M1,17,A0/PF7_17*%
%TO.N,ROW4*%
X107142428Y-102681472D03*
%TO.P,M1,18,A1/PF6_18*%
%TO.N,ROW1*%
X107142428Y-100141472D03*
%TO.P,M1,19,A2/PF5_19*%
%TO.N,ROW6*%
X107142428Y-97601472D03*
%TO.P,M1,20,A3/PF4_20*%
%TO.N,ROW7*%
X107142428Y-95061472D03*
%TO.P,M1,21,VCC_21*%
%TO.N,+5V*%
X107142428Y-92521472D03*
%TO.P,M1,22,RST_22*%
%TO.N,Net-(M1-RST)*%
X107142428Y-89981472D03*
%TO.P,M1,23,GND_23*%
%TO.N,GND*%
X107142428Y-87441472D03*
%TO.P,M1,24,RAW_24*%
%TO.N,unconnected-(M1-RAW-Pad24)*%
X107142428Y-84901472D03*
%TD*%
D14*
%TO.P,J1,1,Pin_1_1*%
%TO.N,JPR_CONF0*%
X90000000Y-137300000D03*
%TO.P,J1,2,Pin_2_2*%
%TO.N,COL0*%
X94000000Y-137300000D03*
%TO.P,J1,3,Pin_3_3*%
%TO.N,ROW5*%
X90000000Y-136800000D03*
%TO.P,J1,4,Pin_4_4*%
%TO.N,COL1*%
X94000000Y-136800000D03*
%TO.P,J1,5,Pin_5_5*%
%TO.N,ROW0*%
X90000000Y-136300000D03*
%TO.P,J1,6,Pin_6_6*%
%TO.N,COL2*%
X94000000Y-136300000D03*
%TO.P,J1,7,Pin_7_7*%
%TO.N,ROW3*%
X89999999Y-135800000D03*
%TO.P,J1,8,Pin_8_8*%
%TO.N,COL3*%
X94000001Y-135800000D03*
%TO.P,J1,9,Pin_9_9*%
%TO.N,ROW2*%
X90000000Y-135300000D03*
%TO.P,J1,10,Pin_10_10*%
%TO.N,COL4*%
X94000000Y-135300000D03*
%TO.P,J1,11,Pin_11_11*%
%TO.N,ROW4*%
X90000000Y-134800000D03*
%TO.P,J1,12,Pin_12_12*%
%TO.N,COL5*%
X94000000Y-134800000D03*
%TO.P,J1,13,Pin_13_13*%
%TO.N,ROW1*%
X90000000Y-134299999D03*
%TO.P,J1,14,Pin_14_14*%
%TO.N,COL6*%
X94000000Y-134299999D03*
%TO.P,J1,15,Pin_15_15*%
%TO.N,ROW6*%
X90000000Y-133800000D03*
%TO.P,J1,16,Pin_16_16*%
%TO.N,COL7*%
X94000000Y-133800000D03*
%TO.P,J1,17,Pin_17_17*%
%TO.N,ROW7*%
X90000000Y-133300001D03*
%TO.P,J1,18,Pin_18_18*%
%TO.N,COL8*%
X94000000Y-133300001D03*
%TO.P,J1,19,Pin_19_19*%
%TO.N,JPR_CONF1*%
X90000000Y-132800000D03*
%TO.P,J1,20,Pin_20_20*%
%TO.N,COL9*%
X94000000Y-132800000D03*
%TO.P,J1,21,Pin_21_21*%
%TO.N,LEDK0*%
X90000000Y-132300000D03*
%TO.P,J1,22,Pin_22_22*%
%TO.N,COL10*%
X94000000Y-132300000D03*
%TO.P,J1,23,Pin_23_23*%
%TO.N,LEDK1*%
X90000000Y-131799999D03*
%TO.P,J1,24,Pin_24_24*%
%TO.N,COL11*%
X94000000Y-131799999D03*
%TO.P,J1,25,Pin_25_25*%
%TO.N,unconnected-(J1-Pin_25-Pad25)*%
X90000000Y-131300000D03*
%TO.P,J1,26,Pin_26_26*%
%TO.N,COL12*%
X94000000Y-131300000D03*
%TO.P,J1,27,Pin_27_27*%
%TO.N,unconnected-(J1-Pin_27-Pad27)*%
X90000000Y-130800001D03*
%TO.P,J1,28,Pin_28_28*%
%TO.N,COL13*%
X94000000Y-130800001D03*
%TO.P,J1,29,Pin_29_29*%
%TO.N,unconnected-(J1-Pin_29-Pad29)*%
X90000000Y-130300000D03*
%TO.P,J1,30,Pin_30_30*%
%TO.N,COL14*%
X94000000Y-130300000D03*
%TO.P,J1,31,Pin_31_31*%
%TO.N,GND*%
X90000000Y-129800000D03*
%TO.P,J1,32,Pin_32_32*%
%TO.N,COL15*%
X94000000Y-129800000D03*
%TO.P,J1,33,Pin_33_33*%
%TO.N,LEDK2*%
X89999999Y-129300000D03*
%TO.P,J1,34,Pin_34_34*%
%TO.N,JPR_CONF2*%
X94000001Y-129300000D03*
%TO.P,J1,35,Pin_35_35*%
%TO.N,+5V*%
X90000000Y-128800000D03*
%TO.P,J1,36,Pin_36_36*%
%TO.N,LEDK3*%
X94000000Y-128800000D03*
%TO.P,J1,37,Pin_37_37*%
%TO.N,TP_DATA*%
X90000000Y-128300000D03*
%TO.P,J1,38,Pin_38_38*%
%TO.N,+5V*%
X94000000Y-128300000D03*
%TO.P,J1,39,Pin_39_39*%
%TO.N,TP_CLK*%
X90000000Y-127800000D03*
%TO.P,J1,40,Pin_40_40*%
%TO.N,TP_RST*%
X94000000Y-127800000D03*
D15*
%TO.P,J1,MP*%
%TO.N,N/C*%
X89850000Y-138575000D03*
X94150000Y-138575000D03*
X89850000Y-126525000D03*
X94150000Y-126525000D03*
%TD*%
D16*
%TO.P,U1,1,A0_1*%
%TO.N,S0*%
X113262500Y-137875000D03*
%TO.P,U1,2,A1_2*%
%TO.N,S1*%
X113262500Y-137225000D03*
%TO.P,U1,3,A2_3*%
%TO.N,S2*%
X113262500Y-136575000D03*
%TO.P,U1,4,~{E1}_4*%
%TO.N,S3*%
X113262500Y-135925000D03*
%TO.P,U1,5,~{E2}_5*%
%TO.N,GND*%
X113262500Y-135275000D03*
%TO.P,U1,6,E3_6*%
%TO.N,+5V*%
X113262500Y-134625000D03*
%TO.P,U1,7,Y7_7*%
%TO.N,COL7*%
X113262500Y-133975000D03*
%TO.P,U1,8,GND_8*%
%TO.N,GND*%
X113262500Y-133325000D03*
%TO.P,U1,9,Y6_9*%
%TO.N,COL6*%
X107537500Y-133325000D03*
%TO.P,U1,10,Y5_10*%
%TO.N,COL5*%
X107537500Y-133975000D03*
%TO.P,U1,11,Y4_11*%
%TO.N,COL4*%
X107537500Y-134625000D03*
%TO.P,U1,12,Y3_12*%
%TO.N,COL3*%
X107537500Y-135275000D03*
%TO.P,U1,13,Y2_13*%
%TO.N,COL2*%
X107537500Y-135925000D03*
%TO.P,U1,14,Y1_14*%
%TO.N,COL1*%
X107537500Y-136575000D03*
%TO.P,U1,15,Y0_15*%
%TO.N,COL0*%
X107537500Y-137225000D03*
%TO.P,U1,16,VCC_16*%
%TO.N,+5V*%
X107537500Y-137875000D03*
%TD*%
D12*
%TO.P,R4,1*%
%TO.N,ROW0*%
X89425000Y-87400000D03*
%TO.P,R4,2*%
%TO.N,GND*%
X87775000Y-87400000D03*
%TD*%
D17*
%TO.P,C2,1*%
%TO.N,+5V*%
X108850000Y-139400000D03*
%TO.P,C2,2*%
%TO.N,GND*%
X110400000Y-139400000D03*
%TD*%
D18*
%TO.P,R5,1*%
%TO.N,ROW1*%
X110575000Y-100141472D03*
%TO.P,R5,2*%
%TO.N,GND*%
X112225000Y-100141472D03*
%TD*%
%TO.P,R13,1*%
%TO.N,LEDK1*%
X87775000Y-102700000D03*
%TO.P,R13,2*%
%TO.N,LED_SCRL*%
X89425000Y-102700000D03*
%TD*%
D12*
%TO.P,R3,1*%
%TO.N,TP_RST*%
X94600000Y-121400000D03*
%TO.P,R3,2*%
%TO.N,GND*%
X92950000Y-121400000D03*
%TD*%
%TO.P,R2,1*%
%TO.N,+5V*%
X98625000Y-123000000D03*
%TO.P,R2,2*%
%TO.N,TP_DATA*%
X96975000Y-123000000D03*
%TD*%
D17*
%TO.P,C3,1*%
%TO.N,+5V*%
X108825000Y-132000000D03*
%TO.P,C3,2*%
%TO.N,GND*%
X110375000Y-132000000D03*
%TD*%
D18*
%TO.P,R8,1*%
%TO.N,ROW4*%
X110575000Y-102700000D03*
%TO.P,R8,2*%
%TO.N,GND*%
X112225000Y-102700000D03*
%TD*%
D12*
%TO.P,R12,1*%
%TO.N,LED_CAPS*%
X89425000Y-100200000D03*
%TO.P,R12,2*%
%TO.N,LEDK0*%
X87775000Y-100200000D03*
%TD*%
%TO.P,R1,1*%
%TO.N,+5V*%
X98625000Y-124600000D03*
%TO.P,R1,2*%
%TO.N,TP_CLK*%
X96975000Y-124600000D03*
%TD*%
%TO.P,R7,1*%
%TO.N,ROW3*%
X89425000Y-95000000D03*
%TO.P,R7,2*%
%TO.N,GND*%
X87775000Y-95000000D03*
%TD*%
D16*
%TO.P,U2,1,A0_1*%
%TO.N,S0*%
X113125000Y-130675000D03*
%TO.P,U2,2,A1_2*%
%TO.N,S1*%
X113125000Y-130025000D03*
%TO.P,U2,3,A2_3*%
%TO.N,S2*%
X113125000Y-129375000D03*
%TO.P,U2,4,~{E1}_4*%
%TO.N,GND*%
X113125000Y-128725000D03*
%TO.P,U2,5,~{E2}_5*%
X113125000Y-128075000D03*
%TO.P,U2,6,E3_6*%
%TO.N,S3*%
X113125000Y-127425000D03*
%TO.P,U2,7,Y7_7*%
%TO.N,COL15*%
X113125000Y-126775000D03*
%TO.P,U2,8,GND_8*%
%TO.N,GND*%
X113125000Y-126125000D03*
%TO.P,U2,9,Y6_9*%
%TO.N,COL14*%
X107400000Y-126125000D03*
%TO.P,U2,10,Y5_10*%
%TO.N,COL13*%
X107400000Y-126775000D03*
%TO.P,U2,11,Y4_11*%
%TO.N,COL12*%
X107400000Y-127425000D03*
%TO.P,U2,12,Y3_12*%
%TO.N,COL11*%
X107400000Y-128075000D03*
%TO.P,U2,13,Y2_13*%
%TO.N,COL10*%
X107400000Y-128725000D03*
%TO.P,U2,14,Y1_14*%
%TO.N,COL9*%
X107400000Y-129375000D03*
%TO.P,U2,15,Y0_15*%
%TO.N,COL8*%
X107400000Y-130025000D03*
%TO.P,U2,16,VCC_16*%
%TO.N,+5V*%
X107400000Y-130675000D03*
%TD*%
D18*
%TO.P,R15,1*%
%TO.N,LEDK3*%
X87750000Y-107800000D03*
%TO.P,R15,2*%
%TO.N,LED_COMP*%
X89400000Y-107800000D03*
%TD*%
%TO.P,R10,1*%
%TO.N,ROW6*%
X110575000Y-97600000D03*
%TO.P,R10,2*%
%TO.N,GND*%
X112225000Y-97600000D03*
%TD*%
%TO.P,R11,1*%
%TO.N,ROW7*%
X110575000Y-95000000D03*
%TO.P,R11,2*%
%TO.N,GND*%
X112225000Y-95000000D03*
%TD*%
D12*
%TO.P,R6,1*%
%TO.N,ROW2*%
X89425000Y-97500000D03*
%TO.P,R6,2*%
%TO.N,GND*%
X87775000Y-97500000D03*
%TD*%
D18*
%TO.P,R14,1*%
%TO.N,LEDK2*%
X87750000Y-105200000D03*
%TO.P,R14,2*%
%TO.N,LED_NUM*%
X89400000Y-105200000D03*
%TD*%
D19*
%TO.P,C1,1*%
%TO.N,+5V*%
X98600000Y-121400000D03*
%TO.P,C1,2*%
%TO.N,TP_RST*%
X97050000Y-121400000D03*
%TD*%
D20*
%TO.N,ROW5*%
X82200000Y-136200000D03*
X86000000Y-83600000D03*
%TO.N,GND*%
X113400000Y-100100000D03*
X110600000Y-128800000D03*
X110600000Y-135300000D03*
X110600000Y-131100000D03*
X110600000Y-126100000D03*
X90600000Y-119000000D03*
X110400000Y-119000000D03*
X90400000Y-121500000D03*
X86600000Y-95000000D03*
X86600000Y-87400000D03*
X110600000Y-138600000D03*
X86600000Y-84900000D03*
X113400000Y-95100000D03*
X110600000Y-133400000D03*
X113400000Y-97600000D03*
X113400000Y-102700000D03*
X110600000Y-128100000D03*
X110400000Y-115000000D03*
X86600000Y-97600000D03*
X88600000Y-119000000D03*
%TO.N,ROW0*%
X82800000Y-135800000D03*
X86000000Y-86200000D03*
%TO.N,ROW3*%
X83400000Y-135400000D03*
X86000000Y-93800000D03*
%TO.N,ROW2*%
X84200000Y-135200000D03*
X86000000Y-96400000D03*
%TO.N,S3*%
X112400000Y-115584500D03*
X114800000Y-135900000D03*
X114900000Y-127400000D03*
%TO.N,TP_CLK*%
X89400000Y-124600000D03*
%TO.N,TP_DATA*%
X91600000Y-123000000D03*
X91600000Y-114800000D03*
%TO.N,S2*%
X115400000Y-136500000D03*
X115500000Y-129400000D03*
%TO.N,S1*%
X116100000Y-137200000D03*
X116200000Y-130000000D03*
%TO.N,S0*%
X116800000Y-130700000D03*
X116800000Y-137800000D03*
%TO.N,ROW7*%
X85200000Y-132400000D03*
%TO.N,+5V*%
X108800000Y-121500000D03*
X108800000Y-134700000D03*
X108800000Y-138600000D03*
X108800000Y-131000000D03*
%TO.N,COL8*%
X105875000Y-130025000D03*
%TO.N,LEDK0*%
X86600000Y-100200000D03*
X84800000Y-130400000D03*
%TO.N,LEDK1*%
X85600000Y-130000000D03*
X85600000Y-130000000D03*
X86600000Y-102600000D03*
%TO.N,LEDK2*%
X86700000Y-105200000D03*
X86200000Y-128800000D03*
%TO.N,LEDK3*%
X86700000Y-107800000D03*
X102000000Y-120000000D03*
X101900000Y-126300000D03*
X86800000Y-120000000D03*
%TO.N,TP_RST*%
X97200000Y-127600000D03*
X95800000Y-121400000D03*
%TO.N,JPR_CONF0*%
X87800000Y-137300000D03*
%TO.N,JPR_CONF1*%
X87100000Y-132800000D03*
%TO.N,JPR_CONF2*%
X98600000Y-129200000D03*
%TD*%
%TO.N,ROW5*%
D21*
X86000000Y-83600000D02*
X90400000Y-83600000D01*
D22*
X89425000Y-85000000D02*
X91803900Y-85000000D01*
X91803900Y-85000000D02*
X91902428Y-84901472D01*
D21*
X82800000Y-136800000D02*
X82200000Y-136200000D01*
X91399473Y-84599473D02*
X91902428Y-84599473D01*
X90400000Y-83600000D02*
X91399473Y-84599473D01*
X90000000Y-136800000D02*
X82800000Y-136800000D01*
%TO.N,GND*%
D22*
X113300000Y-95200000D02*
X113400000Y-95100000D01*
X87800000Y-87400000D02*
X86600000Y-87400000D01*
X90400000Y-121500000D02*
X90500000Y-121400000D01*
X113381472Y-102681472D02*
X113400000Y-102700000D01*
D23*
X110600000Y-128100000D02*
X111900000Y-128100000D01*
D21*
X113300000Y-95000000D02*
X113400000Y-95100000D01*
D23*
X112125000Y-135275000D02*
X113262500Y-135275000D01*
X111900000Y-128100000D02*
X111925000Y-128075000D01*
D22*
X113358528Y-100141472D02*
X113400000Y-100100000D01*
D23*
X110600000Y-128800000D02*
X111850000Y-128800000D01*
X111950000Y-133400000D02*
X112025000Y-133325000D01*
X110375000Y-132000000D02*
X110375000Y-131325000D01*
D21*
X112250000Y-102681472D02*
X113381472Y-102681472D01*
D23*
X110600000Y-135300000D02*
X112100000Y-135300000D01*
D21*
X87775000Y-95000000D02*
X86600000Y-95000000D01*
D23*
X110600000Y-126100000D02*
X111800000Y-126100000D01*
D21*
X90500000Y-121400000D02*
X92950000Y-121400000D01*
D23*
X86251357Y-129800000D02*
X84800000Y-128348643D01*
D22*
X87675000Y-97500000D02*
X86700000Y-97500000D01*
D23*
X110400000Y-138800000D02*
X110600000Y-138600000D01*
D21*
X113400000Y-114200000D02*
X112600000Y-115000000D01*
D23*
X110600000Y-133400000D02*
X111950000Y-133400000D01*
D22*
X87775000Y-85000000D02*
X86700000Y-85000000D01*
D21*
X112600000Y-115000000D02*
X110400000Y-115000000D01*
X112250000Y-100141472D02*
X113358528Y-100141472D01*
D23*
X86000000Y-119000000D02*
X88600000Y-119000000D01*
D22*
X86700000Y-85000000D02*
X86600000Y-84900000D01*
D23*
X110400000Y-139400000D02*
X110400000Y-138800000D01*
X90000000Y-129800000D02*
X86251357Y-129800000D01*
X111925000Y-128725000D02*
X113125000Y-128725000D01*
D21*
X87775000Y-97500000D02*
X86700000Y-97500000D01*
D23*
X112100000Y-135300000D02*
X112125000Y-135275000D01*
D21*
X113400000Y-102700000D02*
X113400000Y-114200000D01*
X112225000Y-97600000D02*
X113400000Y-97600000D01*
X112225000Y-95000000D02*
X113300000Y-95000000D01*
D23*
X110375000Y-131325000D02*
X110600000Y-131100000D01*
D21*
X86700000Y-97500000D02*
X86600000Y-97600000D01*
D23*
X111850000Y-128800000D02*
X111925000Y-128725000D01*
X112025000Y-133325000D02*
X113262500Y-133325000D01*
X111925000Y-128075000D02*
X113125000Y-128075000D01*
X84800000Y-128348643D02*
X84800000Y-120200000D01*
X84800000Y-120200000D02*
X86000000Y-119000000D01*
D24*
X90600000Y-119000000D02*
X88600000Y-119000000D01*
D23*
X111800000Y-126100000D02*
X111825000Y-126125000D01*
X111825000Y-126125000D02*
X113125000Y-126125000D01*
D24*
X90600000Y-119000000D02*
X110400000Y-119000000D01*
%TO.N,ROW0*%
D21*
X83300000Y-136300000D02*
X82800000Y-135800000D01*
X86000000Y-86200000D02*
X90600000Y-86200000D01*
D22*
X91902428Y-87441472D02*
X89491472Y-87441472D01*
D21*
X91841472Y-87441472D02*
X91902428Y-87441472D01*
X90000000Y-136300000D02*
X83300000Y-136300000D01*
D22*
X89491472Y-87441472D02*
X89450000Y-87400000D01*
D21*
X90600000Y-86200000D02*
X91841472Y-87441472D01*
%TO.N,ROW3*%
X91840956Y-95000000D02*
X91902428Y-95061472D01*
X90600000Y-93800000D02*
X91861472Y-95061472D01*
X89999999Y-135800000D02*
X83800000Y-135800000D01*
X89425000Y-95000000D02*
X91840956Y-95000000D01*
X83800000Y-135800000D02*
X83400000Y-135400000D01*
X86000000Y-93800000D02*
X90600000Y-93800000D01*
X91861472Y-95061472D02*
X91902428Y-95061472D01*
%TO.N,ROW2*%
X90600000Y-96400000D02*
X91801472Y-97601472D01*
X86000000Y-96400000D02*
X90600000Y-96400000D01*
D25*
X84300000Y-135300000D02*
X84200000Y-135200000D01*
D21*
X91801472Y-97601472D02*
X91902428Y-97601472D01*
X90000000Y-135300000D02*
X84300000Y-135300000D01*
X91800956Y-97500000D02*
X91902428Y-97601472D01*
X89425000Y-97500000D02*
X91800956Y-97500000D01*
%TO.N,LED_CAPS*%
X91843900Y-100200000D02*
X91902428Y-100141472D01*
X89425000Y-100200000D02*
X91843900Y-100200000D01*
%TO.N,LED_NUM*%
X91880956Y-105200000D02*
X91902428Y-105221472D01*
X89400000Y-105200000D02*
X91880956Y-105200000D01*
%TO.N,LED_SCRL*%
X89506472Y-102681472D02*
X89425000Y-102600000D01*
X91902428Y-102681472D02*
X89506472Y-102681472D01*
%TO.N,LED_COMP*%
X91863900Y-107800000D02*
X91902428Y-107761472D01*
X89400000Y-107800000D02*
X91863900Y-107800000D01*
%TO.N,S3*%
X113262500Y-135925000D02*
X114775000Y-135925000D01*
X112384500Y-115600000D02*
X91000000Y-115600000D01*
X114775000Y-135925000D02*
X114800000Y-135900000D01*
D22*
X114875000Y-127425000D02*
X114900000Y-127400000D01*
D21*
X112400000Y-115584500D02*
X112384500Y-115600000D01*
X90400000Y-115000000D02*
X90400000Y-111803900D01*
X90400000Y-111803900D02*
X91902428Y-110301472D01*
X91000000Y-115600000D02*
X90400000Y-115000000D01*
D22*
X113125000Y-127425000D02*
X114875000Y-127425000D01*
%TO.N,TP_CLK*%
D21*
X86900000Y-125600000D02*
X87900000Y-124600000D01*
X87900000Y-124600000D02*
X96975000Y-124600000D01*
X86900000Y-126500000D02*
X86900000Y-125600000D01*
X90000000Y-127800000D02*
X89900000Y-127800000D01*
X89900000Y-127800000D02*
X88200000Y-127800000D01*
X88200000Y-127800000D02*
X86900000Y-126500000D01*
%TO.N,TP_DATA*%
X86100000Y-126800000D02*
X86100000Y-125200000D01*
X87600000Y-128300000D02*
X86100000Y-126800000D01*
X86100000Y-125200000D02*
X88300000Y-123000000D01*
X107142428Y-112841472D02*
X107142428Y-114257572D01*
X107142428Y-114257572D02*
X106600000Y-114800000D01*
X88300000Y-123000000D02*
X91600000Y-123000000D01*
X90000000Y-128300000D02*
X87600000Y-128300000D01*
X91600000Y-123000000D02*
X96975000Y-123000000D01*
X106600000Y-114800000D02*
X91600000Y-114800000D01*
%TO.N,S2*%
D22*
X113125000Y-129375000D02*
X115475000Y-129375000D01*
D21*
X113262500Y-136575000D02*
X115325000Y-136575000D01*
X115325000Y-136575000D02*
X115400000Y-136500000D01*
D22*
X115475000Y-129375000D02*
X115500000Y-129400000D01*
%TO.N,S1*%
X116175000Y-130025000D02*
X116200000Y-130000000D01*
X113125000Y-130025000D02*
X116175000Y-130025000D01*
D21*
X116075000Y-137225000D02*
X116100000Y-137200000D01*
X113262500Y-137225000D02*
X116075000Y-137225000D01*
%TO.N,S0*%
D22*
X116775000Y-130675000D02*
X116800000Y-130700000D01*
D21*
X113262500Y-137875000D02*
X116725000Y-137875000D01*
D22*
X113125000Y-130675000D02*
X116775000Y-130675000D01*
D21*
X116725000Y-137875000D02*
X116800000Y-137800000D01*
%TO.N,ROW4*%
X114400000Y-101800000D02*
X114000000Y-101400000D01*
X113700000Y-116100000D02*
X114400000Y-115400000D01*
X110600000Y-102681472D02*
X107142428Y-102681472D01*
X84900000Y-116100000D02*
X113700000Y-116100000D01*
X114400000Y-115400000D02*
X114400000Y-101800000D01*
X114000000Y-101400000D02*
X108423900Y-101400000D01*
X90000000Y-134800000D02*
X84800000Y-134800000D01*
X108423900Y-101400000D02*
X107142428Y-102681472D01*
X82200000Y-132200000D02*
X82200000Y-118800000D01*
X84800000Y-134800000D02*
X82200000Y-132200000D01*
X82200000Y-118800000D02*
X84900000Y-116100000D01*
%TO.N,ROW1*%
X82800000Y-132000000D02*
X82800000Y-119200000D01*
X82800000Y-119200000D02*
X85200000Y-116800000D01*
X90000000Y-134299999D02*
X85099999Y-134299999D01*
X115000000Y-99800000D02*
X114000000Y-98800000D01*
X108483900Y-98800000D02*
X107142428Y-100141472D01*
X114000000Y-116800000D02*
X115000000Y-115800000D01*
X107142428Y-100141472D02*
X110600000Y-100141472D01*
X114000000Y-98800000D02*
X108483900Y-98800000D01*
X85099999Y-134299999D02*
X82800000Y-132000000D01*
X85200000Y-116800000D02*
X114000000Y-116800000D01*
X115000000Y-115800000D02*
X115000000Y-99800000D01*
%TO.N,ROW6*%
X85600000Y-133800000D02*
X83400000Y-131600000D01*
X114000000Y-96400000D02*
X108343900Y-96400000D01*
X90000000Y-133800000D02*
X85600000Y-133800000D01*
X83400000Y-119800000D02*
X85800000Y-117400000D01*
X83400000Y-131600000D02*
X83400000Y-119800000D01*
X108343900Y-96400000D02*
X107142428Y-97601472D01*
X115600000Y-98000000D02*
X114000000Y-96400000D01*
X107143900Y-97600000D02*
X107142428Y-97601472D01*
X114400000Y-117400000D02*
X115600000Y-116200000D01*
X110575000Y-97600000D02*
X107143900Y-97600000D01*
X85800000Y-117400000D02*
X114400000Y-117400000D01*
X115600000Y-116200000D02*
X115600000Y-98000000D01*
%TO.N,ROW7*%
X114200000Y-93800000D02*
X108403900Y-93800000D01*
X114700000Y-118000000D02*
X116300000Y-116400000D01*
X86046001Y-133300001D02*
X84200000Y-131454000D01*
X84200000Y-131454000D02*
X84200000Y-120000000D01*
X116300000Y-116400000D02*
X116300000Y-95900000D01*
X86200000Y-118000000D02*
X114700000Y-118000000D01*
X84200000Y-120000000D02*
X86200000Y-118000000D01*
X108403900Y-93800000D02*
X107142428Y-95061472D01*
X116300000Y-95900000D02*
X114200000Y-93800000D01*
X110411472Y-95061472D02*
X107142428Y-95061472D01*
X90000000Y-133300001D02*
X86046001Y-133300001D01*
%TO.N,+5V*%
D23*
X87000000Y-128800000D02*
X85400000Y-127200000D01*
X108825000Y-131025000D02*
X108800000Y-131000000D01*
D24*
X117200000Y-94700000D02*
X117200000Y-116700000D01*
X107142428Y-92521472D02*
X107163900Y-92500000D01*
D23*
X109050000Y-134700000D02*
X109125000Y-134625000D01*
D22*
X94700000Y-128300000D02*
X94000000Y-128300000D01*
D23*
X98625000Y-124600000D02*
X100800000Y-124600000D01*
X108850000Y-138650000D02*
X108800000Y-138600000D01*
X100800000Y-121500000D02*
X100800000Y-122900000D01*
D24*
X108800000Y-121500000D02*
X101300000Y-121500000D01*
D23*
X100800000Y-121000000D02*
X100800000Y-121500000D01*
X107400000Y-131400000D02*
X107400000Y-130675000D01*
X107537500Y-138937500D02*
X108000000Y-139400000D01*
X97500000Y-128300000D02*
X94700000Y-128300000D01*
X108825000Y-132000000D02*
X108825000Y-131025000D01*
X107537500Y-137875000D02*
X107537500Y-138937500D01*
D24*
X101300000Y-121500000D02*
X100300000Y-120500000D01*
D23*
X108825000Y-132000000D02*
X108000000Y-132000000D01*
D24*
X117200000Y-116700000D02*
X112400000Y-121500000D01*
X115000000Y-92500000D02*
X117200000Y-94700000D01*
D23*
X85400000Y-122200000D02*
X87100000Y-120500000D01*
X108000000Y-139400000D02*
X108850000Y-139400000D01*
X108800000Y-134700000D02*
X109050000Y-134700000D01*
X108000000Y-132000000D02*
X107400000Y-131400000D01*
X100800000Y-124600000D02*
X100800000Y-125000000D01*
X98600000Y-121400000D02*
X100700000Y-121400000D01*
X100800000Y-125000000D02*
X97500000Y-128300000D01*
X98625000Y-123000000D02*
X100700000Y-123000000D01*
X109125000Y-134625000D02*
X113262500Y-134625000D01*
X100700000Y-123000000D02*
X100800000Y-122900000D01*
X100800000Y-122900000D02*
X100800000Y-124600000D01*
X87100000Y-120500000D02*
X100300000Y-120500000D01*
X89300000Y-128800000D02*
X87000000Y-128800000D01*
X108850000Y-139400000D02*
X108850000Y-138650000D01*
D24*
X112400000Y-121500000D02*
X108800000Y-121500000D01*
X107163900Y-92500000D02*
X115000000Y-92500000D01*
D22*
X90000000Y-128800000D02*
X89300000Y-128800000D01*
D23*
X100700000Y-121400000D02*
X100800000Y-121500000D01*
X85400000Y-127200000D02*
X85400000Y-122200000D01*
X100300000Y-120500000D02*
X100800000Y-121000000D01*
%TO.N,COL0*%
D21*
X107462500Y-137300000D02*
X94000000Y-137300000D01*
X107537500Y-137225000D02*
X107462500Y-137300000D01*
%TO.N,COL1*%
X106225000Y-136575000D02*
X106000000Y-136800000D01*
X107537500Y-136575000D02*
X106225000Y-136575000D01*
X106000000Y-136800000D02*
X94000000Y-136800000D01*
%TO.N,COL2*%
X107537500Y-135925000D02*
X105975000Y-135925000D01*
X105975000Y-135925000D02*
X105600000Y-136300000D01*
X105600000Y-136300000D02*
X94000000Y-136300000D01*
%TO.N,COL3*%
X105625000Y-135275000D02*
X105100000Y-135800000D01*
X105100000Y-135800000D02*
X94000001Y-135800000D01*
X107537500Y-135275000D02*
X105625000Y-135275000D01*
%TO.N,COL4*%
X107537500Y-134625000D02*
X105275000Y-134625000D01*
X105275000Y-134625000D02*
X104600000Y-135300000D01*
X104600000Y-135300000D02*
X94000000Y-135300000D01*
%TO.N,COL5*%
X107537500Y-133975000D02*
X104925000Y-133975000D01*
X104100000Y-134800000D02*
X94000000Y-134800000D01*
X104925000Y-133975000D02*
X104100000Y-134800000D01*
%TO.N,COL6*%
X94000001Y-134300000D02*
X94000000Y-134299999D01*
X104475000Y-133325000D02*
X103500000Y-134300000D01*
X103500000Y-134300000D02*
X94000001Y-134300000D01*
X107537500Y-133325000D02*
X104475000Y-133325000D01*
%TO.N,COL7*%
X103100000Y-133800000D02*
X94000000Y-133800000D01*
X113262500Y-133975000D02*
X110225000Y-133975000D01*
X104150000Y-132750000D02*
X103100000Y-133800000D01*
X110225000Y-133975000D02*
X109000000Y-132750000D01*
X109000000Y-132750000D02*
X104150000Y-132750000D01*
%TO.N,COL8*%
X102600000Y-133300000D02*
X94000001Y-133300000D01*
X107400000Y-130025000D02*
X105875000Y-130025000D01*
X94000001Y-133300000D02*
X94000000Y-133300001D01*
X105875000Y-130025000D02*
X102600000Y-133300000D01*
%TO.N,COL9*%
X107400000Y-129375000D02*
X105525000Y-129375000D01*
X102100000Y-132800000D02*
X94000000Y-132800000D01*
X105525000Y-129375000D02*
X102100000Y-132800000D01*
%TO.N,LEDK0*%
X87775000Y-100200000D02*
X86600000Y-100200000D01*
X86700000Y-132300000D02*
X84800000Y-130400000D01*
X90000000Y-132300000D02*
X86700000Y-132300000D01*
%TO.N,COL10*%
X105275000Y-128725000D02*
X101700000Y-132300000D01*
X107400000Y-128725000D02*
X105275000Y-128725000D01*
X101700000Y-132300000D02*
X94000000Y-132300000D01*
%TO.N,LEDK1*%
X87399999Y-131799999D02*
X85600000Y-130000000D01*
X87775000Y-102600000D02*
X86600000Y-102600000D01*
X90000000Y-131799999D02*
X87399999Y-131799999D01*
%TO.N,COL11*%
X107400000Y-128075000D02*
X104925000Y-128075000D01*
X101200000Y-131800000D02*
X94000001Y-131800000D01*
X104925000Y-128075000D02*
X101200000Y-131800000D01*
X94000001Y-131800000D02*
X94000000Y-131799999D01*
%TO.N,COL12*%
X107400000Y-127425000D02*
X104775000Y-127425000D01*
X100900000Y-131300000D02*
X94000000Y-131300000D01*
X104775000Y-127425000D02*
X100900000Y-131300000D01*
%TO.N,COL13*%
X100400000Y-130800000D02*
X94000001Y-130800000D01*
X104425000Y-126775000D02*
X100400000Y-130800000D01*
X107400000Y-126775000D02*
X104425000Y-126775000D01*
X94000001Y-130800000D02*
X94000000Y-130800001D01*
%TO.N,COL14*%
X100100000Y-130300000D02*
X94000000Y-130300000D01*
X107400000Y-126125000D02*
X104275000Y-126125000D01*
X104275000Y-126125000D02*
X100100000Y-130300000D01*
%TO.N,COL15*%
X99400000Y-129800000D02*
X94000000Y-129800000D01*
X108800000Y-125500000D02*
X103700000Y-125500000D01*
X113125000Y-126775000D02*
X110075000Y-126775000D01*
X110075000Y-126775000D02*
X108800000Y-125500000D01*
X103700000Y-125500000D02*
X99400000Y-129800000D01*
%TO.N,LEDK2*%
X87750000Y-105200000D02*
X86700000Y-105200000D01*
X89999999Y-129300000D02*
X86700000Y-129300000D01*
X86700000Y-129300000D02*
X86200000Y-128800000D01*
%TO.N,LEDK3*%
X86800000Y-120000000D02*
X102000000Y-120000000D01*
X98300000Y-128500000D02*
X99700000Y-128500000D01*
X99700000Y-128500000D02*
X101900000Y-126300000D01*
X94000000Y-128800000D02*
X98000000Y-128800000D01*
X98000000Y-128800000D02*
X98300000Y-128500000D01*
X87750000Y-107800000D02*
X86700000Y-107800000D01*
%TO.N,TP_RST*%
X97050000Y-121400000D02*
X94600000Y-121400000D01*
X97000000Y-127800000D02*
X97200000Y-127600000D01*
X94000000Y-127800000D02*
X97000000Y-127800000D01*
%TO.N,JPR_CONF0*%
X90000000Y-137300000D02*
X87800000Y-137300000D01*
%TO.N,JPR_CONF1*%
X87100000Y-132800000D02*
X90000000Y-132800000D01*
%TO.N,JPR_CONF2*%
D22*
X98500000Y-129300000D02*
X98600000Y-129200000D01*
D21*
X94000001Y-129300000D02*
X98500000Y-129300000D01*
%TD*%
M02*
